<svg aria-hidden="true" style="width:0;height:0;position:absolute;overflow:hidden" xmlns="http://www.w3.org/2000/svg"><defs><symbol id="icon-facebook" viewBox="0 0 16 32"><path d="M14.512.006 10.896 0c-4.064 0-6.69 3.092-6.69 7.876v3.63H.568c-.314 0-.568.294-.568.654v5.26c0 .36.254.652.568.652h3.638v13.276c0 .36.254.652.568.652H9.52c.314 0 .568-.292.568-.652V18.072h4.252c.314 0 .568-.292.568-.652l.002-5.26c0-.174-.06-.34-.166-.462a.535.535 0 0 0-.402-.192h-4.254V8.428c0-1.48.308-2.23 1.988-2.23h2.436c.314 0 .568-.294.568-.654V.66c0-.36-.254-.652-.568-.654z"/></symbol><symbol id="icon-twitter" viewBox="0 0 34 32"><path d="M34.133 3.669a13.11 13.11 0 0 1-3.96 1.229l-.072.009c1.451-.969 2.558-2.492 3.078-4.324a12.957 12.957 0 0 1-4.349 1.875l-.088.017C27.458.948 25.627 0 23.631 0c-3.874 0-6.993 3.516-6.993 7.825 0 .619.047 1.216.162 1.783C10.982 9.29 5.835 6.173 2.377 1.425a8.477 8.477 0 0 0-.958 3.944v.012-.001c0 2.709 1.248 5.109 3.108 6.5a6.332 6.332 0 0 1-3.188-.98l.026.015V11c0 3.804 2.426 6.961 5.606 7.689-.57.173-1.19.256-1.835.256-.448 0-.9-.028-1.325-.132.907 3.098 3.479 5.376 6.539 5.449-2.381 2.082-5.404 3.337-8.676 3.337-.574 0-1.124-.03-1.675-.107 3.1 2.234 6.773 3.509 10.735 3.509 12.877 0 19.917-11.925 19.917-22.259 0-.346-.011-.681-.026-1.011a15.072 15.072 0 0 0 3.469-3.993l.038-.068z"/></symbol><symbol id="icon-logo" viewBox="0 0 72 32"><path d="M42.83 15.743c0 .257-.008.513 0 .77.091 2.611-.746 4.963-2.087 7.181a29.25 29.25 0 0 0-1.183 2.096l-.084.18c-.32.639-.764 1.087-1.455 1.348-.386.146-.743.398-1.067.658-1.489 1.199-3.178 2.058-4.985 2.662-1.2.402-2.435.756-3.739.739-.389-.004-.778.112-1.168.113s-.779-.122-1.164-.106c-1.682.07-3.239-.434-4.785-.963-1.688-.577-3.178-1.489-4.579-2.576-1.979-1.533-3.388-3.464-4.424-5.674-.558-1.192-1.013-2.421-1.142-3.743-.022-.219-.096-.436-.162-.65-.47-1.483-.2-2.937.091-4.415.223-1.13.451-2.247.885-3.319 1.145-2.838 2.964-5.162 5.483-6.988 2.1-1.52 4.451-2.455 7.006-2.856 2.934-.461 5.796-.129 8.574.947 1.386.539 2.693 1.221 3.836 2.126 1.066.842 2.026 1.829 2.934 2.836.822.914 1.407 2.002 1.928 3.112.814 1.734 1.345 3.53 1.292 5.458-.012.357-.003.71-.004 1.063zm-1.125-3.513c-.082-.606-.132-1.309-.284-1.99-.433-1.961-1.597-3.491-3.149-4.741-.881-.711-1.842-1.328-2.788-1.956-.321-.213-.693-.409-1.068-.474-.963-.173-1.936-.334-2.911-.383-1.694-.084-3.215-.511-4.493-1.659-.941-.844-1.966-.926-2.943-.182-1.108.842-2.37 1.336-3.656 1.825-.942.359-1.85.81-2.756 1.256-.757.374-1.198.956-1.187 1.838.007.494-.227.908-.697 1.182-.392.229-.768.483-1.127.761-1.002.769-1.783 1.635-1.952 2.979-.133 1.063-.463 2.114-1.211 2.989-.24.287-.4.647-.444 1.043l-.001.009c-.069.795-.041 1.599-.02 2.399.005.214.101.443.213.631.258.445.539.877.842 1.294.733.994 1.371 2.013 1.518 3.277.143 1.224.749 2.221 1.776 2.982 1.486 1.103 2.917 2.274 4.426 3.348.81.579 1.678 1.085 2.747 1.202s2.117.401 3.076.926c.201.106.421.172.648.193 1.353.143 2.604-.184 3.792-.801.372-.193.756-.369 1.141-.537.928-.405 1.957-.671 2.766-1.235.899-.629 1.861-.908 2.894-1.084.445-.076.81-.255 1.1-.579.347-.383.667-.79 1.028-1.16.373-.383.643-.79.708-1.334.1-.835.467-1.573.933-2.282.787-1.198 1.235-2.522 1.468-3.928.061-.37.096-.682-.091-1.007-.543-.938-.321-2.002-.493-3.001-.086-.539.114-1.13.197-1.802l-.002.001zm-6.527-9.367c-.229-.246-.302-.358-.405-.428-.187-.126-.392-.229-.59-.338-1.702-.935-3.566-1.389-5.471-1.716-.383-.066-.785-.036-1.175-.022-.102.003-.223.1-.287.187-.03.039.037.178.093.244.421.485.96.855 1.574 1.067l.026.008c1.075.378 2.206.585 3.348.613.484.014.967.103 1.449.167.411.057.821.125 1.44.219zM20.716 29.804c-1.142-.91-2.145-1.724-3.163-2.516a87.359 87.359 0 0 0-2.245-1.694l-.323-.226c-.097-.072-.25-.069-.462-.123 1.039 1.701 4.509 4.285 6.193 4.559zM13.018 8.561c.689-.513 1.326-1.053 2.026-1.5.981-.624 1.357-1.398 1.125-2.729-.696.555-1.193 1.223-1.729 1.832-.568.64-.988 1.403-1.461 2.121-.037.058.022.172.04.276zm23.237 19.408c-.643-.043-1.29.067-1.693.406-.765.641-1.675.964-2.601 1.285-.487.168-.945.415-1.403.651-.063.033-.075.206-.062.308.004.035.176.091.246.068.831-.276 1.691-.499 2.478-.869.965-.451 1.872-1.023 2.796-1.554.097-.052.148-.178.238-.294zM11.7 19.074c-.184.531-.148.825-.032 1.138.322.868.517 1.785 1.099 2.544.215.281.259.911.656.775.35-.118-.059-.616-.083-.953-.092-1.283-.784-2.318-1.64-3.504zm6.234-15.982.086.127c.48-.174.965-.338 1.44-.524a223.3 223.3 0 0 0 3.09-1.234c.208-.086.397-.222.574-.361.049-.039.041-.172.025-.253-.008-.037-.106-.077-.162-.079a1.03 1.03 0 0 0-.291.048l.007-.002c-1.396.386-2.712.959-3.972 1.653-.294.162-.534.415-.797.626zm24.514 13.783c.084-.095.15-.135.155-.18.136-1.398-.016-2.783-.212-4.165-.01-.069-.109-.169-.176-.177-.074-.01-.19.05-.235.115a.723.723 0 0 0-.133.342v.003a13.003 13.003 0 0 0 .244 3.489l-.015-.084c.044.226.236.426.372.657zm-31.085-3.858c.545-.202.626-.569.684-.9.143-.807.498-1.584.381-2.437-.57 1.019-1.075 2.051-1.066 3.338zm13.182 17.722c-1.221-.527-1.552-.582-2.639-.434.461.17.876.441 1.292.445.435.007.906.526 1.347-.01z"/><path d="M27.064 20.267c-.835-.015-1.409-.355-1.834-1.014-.395-.613-1.053-.933-1.657-1.311-.76-.477-1.377-1.014-1.553-1.98-.122-.655.02-1.223.293-1.741.229-.432.637-.834 1.066-1.091.466-.279.851-.542 1.066-1.057.243-.592.856-.628 1.398-.735.511-.1 1.031-.165 1.535-.29.689-.172 1.314-.118 1.818.404.388.406.843.697 1.349.944.527.255.701.554.536 1.089-.112.362-.003.609.135.899.152.317.308.637.412.971.347 1.11-.052 2.045-1.121 2.539-.662.306-1.169.715-1.334 1.433-.065.289-.251.453-.513.528-.528.151-1.065.275-1.597.411zm3.504-4.654c.017-1.955-1.503-3.519-3.48-3.521-1.774 0-3.559 1.17-3.629 3.413-.055 1.795 1.479 3.468 3.478 3.474 2.435.012 3.584-1.637 3.631-3.366zm-7.128 1.869c0-.251.024-.379-.003-.494-.263-1.062-.433-2.115.162-3.138.043-.073-.056-.225-.089-.34-.117.037-.258.045-.347.116-.982.786-1.421 2.674.277 3.857zm3.649-5.882c.412.147.647.251.892.316.906.234 1.679.654 2.217 1.428.106.152.243.379.445.205.108-.093.143-.376.082-.517-.084-.189-.274-.424-.458-.461-.498-.101-.77-.453-1.095-.759-.545-.511-1.155-.671-2.083-.212zm-.055 7.698-.012-.074c-.261 0-.524-.022-.782.009-.132.016-.252.125-.377.193.114.098.213.253.345.285.701.173 1.409.21 2.102-.054.118-.045.25-.104.324-.197.065-.078.087-.219.074-.325-.005-.04-.169-.099-.25-.086-.475.072-.948.163-1.421.25l-.002.001zm3.589-2.006c.487-.088.704-.355.732-.766a6.943 6.943 0 0 0-.015-1.04c-.008-.091-.138-.172-.212-.259-.109.1-.328.234-.308.295.197.599-.215 1.136-.196 1.769v.001zM35.073 20c-.029.014-.141.106-.263.118-.111.013-.273-.023-.342-.099a17.11 17.11 0 0 1-.96-1.139l-.03-.04c-.082-.107-.114-.395-.068-.42.152-.082.449-.167.515-.096.392.42.735.882 1.089 1.336.034.046.024.123.06.34zm-16.557 3.293c.18.014.538.024.885.082.087.015.203.18.203.279s-.1.269-.187.29c-.677.163-1.35.204-1.949-.237a.295.295 0 0 1-.096-.218l.001-.026v.001c.013-.066.118-.159.189-.163.259-.02.52-.009.955-.009zM39.724 9.411l.257.136c-.073.127-.117.331-.223.368a10.69 10.69 0 0 1-1.496.415c-.146.029-.359-.112-.494-.227-.156-.133-.063-.424.133-.453.577-.086 1.157-.153 1.823-.238zM22.497 26.119c.27.123.497.158.608.289.303.366.58.752.829 1.155.122.192.011.4-.194.455-.112.03-.316-.059-.398-.158a12.54 12.54 0 0 1-.888-1.172l-.029-.046c-.065-.101.036-.303.072-.524zm10.622-15.276c.017-.112 0-.24.054-.29.073-.065.229-.118.304-.083.102.048.169.179.239.282.196.286.391.575.577.868.084.132.196.272.203.414a.545.545 0 0 1-.176.391c-.056.05-.288.018-.345-.052-.374-.464-.824-.899-.857-1.53zm1.165-4.928c-.082.474-.114.822-.208 1.157a.964.964 0 0 1-.322.456l-.002.002c-.108.084-.295.072-.446.103-.012-.138-.056-.281-.031-.412.079-.404.185-.802.279-1.202.008-.031.006-.065.015-.095.075-.241.236-.426.494-.325.13.05.191.272.221.318zm-6.988 3.08c.228.027.523.043.803.109.097.022.238.191.222.264-.029.129-.14.3-.257.339a.986.986 0 0 1-.578.001l.007.002c-.325-.101-.626-.134-.95-.002-.212.086-.412-.005-.468-.211-.076-.276.138-.41.377-.449.255-.041.52-.035.844-.053zm5.055 13.611c-.092.392-.162.736-.261 1.072-.02.066-.162.155-.222.14-.108-.026-.259-.109-.281-.195a1.237 1.237 0 0 1-.015-.576l-.001.008c.076-.345.151-.671.008-1.023-.068-.168-.049-.437.214-.436.142 0 .345.17.408.311.103.225.11.491.15.699zm-3.987-.101c-.053.092-.078.201-.148.247-.427.287-.854.575-1.303.825-.115.064-.317.024-.463-.018-.214-.062-.259-.337-.081-.448.492-.306.985-.611 1.491-.894.082-.045.244.004.349.054.071.034.101.146.155.233zM22.926 4.089c.069.04.2.075.217.136.17.609.333 1.219.467 1.835.037.171-.195.266-.351.164-.49-.321-.795-1.511-.509-2.009.029-.05.102-.075.176-.126zm6.055 1.728c-.148-.095-.306-.145-.328-.227-.023-.091.053-.244.136-.316a13.63 13.63 0 0 1 1.083-.854l.043-.029c.131-.09.405-.154.507-.084.239.164.114.395-.053.564-.224.228-.446.468-.703.652-.197.138-.451.197-.684.294zm-9.317 3.214-.358.33c-.102-.108-.253-.197-.296-.327-.124-.34-.279-.851-.416-1.368l-.037-.162c-.018-.071.041-.215.102-.24.099-.04.262-.055.337 0 .149.107.319.251.368.411.127.418.195.856.3 1.355zm-3.923 8.444c-.328.587-.578 1.188-1.19 1.508-.102.054-.33-.015-.441-.101-.187-.144 0-.266.091-.388.287-.386.553-.788.858-1.158.078-.095.278-.142.414-.129.093.008.168.161.268.268zm3.714.05c.172.097.296.125.319.189.038.104.058.268 0 .34-.094.115-.255.181-.394.259-.36.201-.714.413-1.087.584a.51.51 0 0 1-.422-.034c-.208-.145-.135-.377.033-.479.513-.313 1.053-.587 1.552-.859zm18.581-2.659c-.132.291-.318.729-.538 1.149-.034.065-.247.101-.338.061-.084-.037-.176-.202-.159-.291.089-.468.187-.937.335-1.389.046-.138.251-.263.408-.308.058-.017.211.197.283.328.042.074.008.187.008.449zm-22.397-3.488c.581.509.512 1.199.577 1.836.012.118-.14.288-.26.374-.063.045-.32-.027-.327-.068a28.616 28.616 0 0 1-.208-1.806l-.009-.135c-.005-.054.132-.123.227-.202zm13.59 15.745c.097.025.193.056.287.092.349.157.701.311 1.042.485.162.082.324.185.441.316.134.152-.019.444-.207.404-.634-.133-1.253-.32-1.727-.782-.07-.068-.068-.239-.046-.353.014-.064.136-.108.21-.162zm-7.714-15.559c.034.102.15.261.109.361a21.768 21.768 0 0 1-.772 1.686l.062-.133c-.031.063-.162.118-.24.109-.068-.009-.162-.102-.18-.172-.133-.57.286-1.59.754-1.846.048-.026.125-.003.268-.003zm18.125 8.65c-.073-.046-.225-.1-.304-.206-.032-.042.07-.235.158-.297.337-.246.73-.502 1.135-.739l.068-.037c.112-.063.344-.068.427.003.076.066.087.315.018.407-.347.472-.786.832-1.503.869zm-2.408 4.065c-.301-.031-.432-.034-.557-.061-.053-.012-.132-.072-.133-.112l-.001-.026c0-.085.026-.164.07-.23l-.001.002a.513.513 0 0 1 .24-.148l.004-.001c.463-.136.927-.272 1.398-.381.102-.024.317.041.331.098.031.136-.006.298-.061.434-.029.072-.143.132-.231.158-.402.108-.807.204-1.059.267zm-13.961-3.263c-.034.138-.088.443-.192.731-.026.072-.228.14-.321.114s-.203-.176-.2-.269c.01-.533.037-1.066.093-1.597.012-.116.162-.218.248-.325.104.107.272.202.298.324.059.275.046.564.074 1.022zM44.998 4.352c0-1.128.281-1.983.84-2.566.566-.589 1.292-.883 2.177-.883s1.588.254 2.109.763c.528.508.792 1.32.792 2.436s-.281 1.959-.84 2.529c-.56.571-1.307.856-2.243.856-.808 0-1.47-.227-1.985-.679-.267-.236-.477-.561-.63-.976-.146-.422-.22-.914-.22-1.479zM47.986.995c-.643 0-1.171.279-1.585.837-.407.558-.611 1.375-.611 2.454s.194 1.866.582 2.362c.388.496.904.744 1.546.744.65 0 1.178-.279 1.585-.837.413-.564.62-1.379.62-2.446 0-1.072-.197-1.859-.592-2.361-.388-.502-.903-.754-1.546-.754zm4.582 6.454h-.792V.94h.792v2.994h3.102V.94h.792v6.509h-.792V4.027h-3.101v3.422zm7.966 0h-.124L61.241.94h.315l2.004 6.016L65.555.94h.315l.831 6.509h-.793l-.659-5.207-1.727 5.207h-.602l-1.747-5.142-.64 5.142zM71.989.94a.608.608 0 0 1 .181.434v.023-.001c0 .155-.035.313-.105.474l-1.709 3.375v2.204h-.792V5.45L67.654.94h.812l1.823 4.194L71.95 1.87c.066-.142.105-.308.105-.483a.52.52 0 0 0-.144-.391l.077-.056zM1.345 9.159c.431-.021.937-.032 1.446-.033h.001c.482 0 .987.049 1.514.147a5.467 5.467 0 0 1 1.581.558c.527.261.97.606 1.329 1.032.37.415.667.967.892 1.654s.336 1.524.336 2.507-.168 1.868-.504 2.655c-.325.776-.774 1.371-1.346 1.786-1.11.808-2.451 1.212-4.02 1.212-.549 0-1.127-.021-1.733-.065H0V9.159h1.345zm.051 11.322c.235.022.532.033.891.033s.628-.005.808-.016c.179-.011.426-.054.74-.131.335-.093.625-.21.899-.356l-.024.012c.269-.142.549-.349.841-.622.302-.286.559-.615.763-.979l.011-.021c.483-.896.724-2.065.724-3.506 0-1.027-.129-1.912-.387-2.655-.259-.754-.556-1.311-.892-1.671a3.47 3.47 0 0 0-1.172-.843l-.022-.009c-.471-.218-.847-.344-1.127-.377s-.606-.05-.976-.05-.728.016-1.076.049v11.142zm43.875.13h-.218V9.142h.572l6.997 10.601V9.142h.219v11.469h-1.228l-6.342-9.503v9.503zM63.199 9.142h.219v6.554c0 1.715-.348 2.977-1.043 3.785-.696.797-1.604 1.196-2.725 1.196-.706 0-1.306-.06-1.8-.18a3.913 3.913 0 0 1-1.404-.711l.008.006c-.898-.677-1.346-2.043-1.346-4.096V9.142h1.396v6.538c0 1.988.308 3.316.926 3.982.313.328.639.552.975.671.347.12.763.18 1.245.18 1.077 0 1.934-.382 2.574-1.147.651-.776.976-2.005.976-3.687V9.141zm5.957 11.469H67.76V9.305h-2.911v-.163h7.233v.163h-2.927v11.306z"/></symbol><symbol id="icon-program" viewBox="0 0 23 32"><path d="M0 7.349a4.899 4.899 0 0 0 4.08 4.823v7.422c0 .451.365.816.816.816H17.961a.816.816 0 0 0 .816-.816v-7.422c2.328-.406 4.076-2.41 4.08-4.822a4.903 4.903 0 0 0-4.898-4.898h-1.847a5.708 5.708 0 0 0-4.683-2.45c-1.936 0-3.65.971-4.683 2.448H4.899A4.903 4.903 0 0 0 .001 7.353zm5.714 10.612h11.429v.816H5.714v-.816zM4.898 4.082h1.056c-.16.53-.24 1.079-.24 1.632a.816.816 0 1 0 1.632 0c0-2.251 1.831-4.082 4.082-4.082s4.082 1.831 4.082 4.082a.816.816 0 1 0 1.632 0c0-.567-.085-1.113-.24-1.632h1.056a3.269 3.269 0 0 1 2.308 5.571 3.257 3.257 0 0 1-2.301.96h-.01a.814.814 0 0 0-.814.814v4.903H5.712v-4.903a.816.816 0 0 0-.816-.816h-.007a3.27 3.27 0 0 1-.004-6.528h.008zm15.509 19.593H2.45a.816.816 0 1 0 0 1.632h17.957a.816.816 0 1 0 0-1.632zm0 2.448H2.45a.817.817 0 0 0 0 1.634h17.957a.817.817 0 0 0 0-1.634zm-4.082 2.471H6.533a.817.817 0 0 0 0 1.634h9.792a.817.817 0 0 0 0-1.634z"/></symbol><symbol id="icon-dotted-round" viewBox="0 0 32 32"><path fill="#fff" style="fill:var(--color1,#fff)" d="M30.545 16c0 8.033-6.512 14.545-14.545 14.545S1.455 24.033 1.455 16C1.455 7.967 7.967 1.455 16 1.455S30.545 7.967 30.545 16z"/><path fill="none" stroke="#f3848c" style="stroke:var(--color2,#f3848c)" stroke-linecap="round" stroke-width=".727" d="M30.182 16c0 7.832-6.349 14.182-14.182 14.182S1.818 23.833 1.818 16C1.818 8.168 8.167 1.818 16 1.818S30.182 8.167 30.182 16z"/></symbol><symbol id="icon-solid-round" viewBox="0 0 32 32"><path fill="#fff" style="fill:var(--color1,#fff);stroke:var(--color2,#f3848c)" stroke="#f3848c" stroke-width="1.333" d="M31.333 16c0 8.468-6.865 15.333-15.333 15.333S.667 24.468.667 16 7.532.667 16 .667 31.333 7.532 31.333 16z"/></symbol><symbol id="icon-instagram" viewBox="0 0 32 32"><path d="M16.316 32h-.32l-.461.001c-2.329 0-4.64-.072-6.933-.212l.314.015c-2.066-.126-3.952-.84-5.454-2.064-1.45-1.182-2.44-2.78-2.942-4.75-.44-1.716-.46-3.4-.484-5.026C.02 18.794.004 17.41 0 16.004c.004-1.414.02-2.8.036-3.968.022-1.628.046-3.31.484-5.026.5-1.97 1.492-3.568 2.94-4.75C4.966 1.036 6.852.32 8.92.196c2.252-.138 4.57-.2 7.084-.196l.443-.001c2.335 0 4.653.071 6.952.212l-.316-.015c2.066.124 3.952.84 5.454 2.064 1.45 1.182 2.44 2.78 2.944 4.75.436 1.716.46 3.4.48 5.026.018 1.17.034 2.554.038 3.96v.006c-.004 1.408-.02 2.792-.036 3.96-.022 1.63-.046 3.312-.482 5.028-.504 1.97-1.494 3.568-2.944 4.75-1.502 1.224-3.388 1.94-5.454 2.064-1.968.125-4.268.196-6.585.196h-.193.01zm-.32-2.5.48.001c2.271 0 4.526-.069 6.763-.206l-.307.015c1.56-.096 2.916-.602 4.026-1.508 1.026-.836 1.734-1.99 2.1-3.43.364-1.428.386-2.96.406-4.444.016-1.16.032-2.534.036-3.928-.004-1.394-.02-2.768-.036-3.93-.02-1.48-.04-3.014-.406-4.44-.368-1.44-1.074-2.596-2.1-3.432-1.11-.906-2.464-1.412-4.026-1.508-1.93-.122-4.186-.191-6.457-.191l-.5.001h.026l-.485-.001c-2.269 0-4.522.069-6.756.206l.307-.015c-1.56.096-2.916.602-4.026 1.508-1.026.836-1.734 1.99-2.1 3.43-.364 1.428-.386 2.96-.406 4.442a364.21 364.21 0 0 0-.036 3.932c.004 1.39.02 2.766.036 3.926.02 1.484.04 3.016.406 4.444.366 1.44 1.074 2.594 2.1 3.43 1.11.906 2.464 1.412 4.026 1.508 2.2.134 4.468.196 6.928.19zm-.06-5.688A7.82 7.82 0 0 1 8.126 16a7.82 7.82 0 0 1 7.814-7.812A7.82 7.82 0 0 1 23.75 16a7.82 7.82 0 0 1-7.812 7.812zm0-13.124A5.32 5.32 0 0 0 10.626 16a5.32 5.32 0 0 0 5.314 5.312A5.32 5.32 0 0 0 21.25 16a5.32 5.32 0 0 0-5.312-5.312zm8.69-5-.061-.001a1.876 1.876 0 0 0 0 3.752l.064-.001h-.003a1.877 1.877 0 0 0 .003-3.75h-.003z"/></symbol><symbol id="icon-logo-company" viewBox="0 0 106 46"><path d="M62.907 22.996c0 .375-.011.75 0 1.125.133 3.813-1.095 7.249-3.066 10.488a46.774 46.774 0 0 0-1.861 3.326c-.47.933-1.122 1.587-2.137 1.97-.567.212-1.092.581-1.567.961-2.187 1.752-4.668 3.006-7.322 3.889-1.763.587-3.577 1.103-5.492 1.08-.571-.007-1.143.163-1.715.165-.572.002-1.144-.178-1.71-.155-2.47.103-4.757-.634-7.028-1.407-2.479-.843-4.667-2.175-6.726-3.763-2.906-2.239-4.976-5.059-6.498-8.287-.82-1.74-1.488-3.537-1.677-5.468-.032-.32-.141-.638-.238-.949-.69-2.166-.294-4.29.134-6.449.327-1.65.663-3.281 1.3-4.849 1.681-4.145 4.353-7.54 8.053-10.206 3.085-2.22 6.537-3.585 10.29-4.172C39.956-.378 44.16.107 48.24 1.68c2.036.787 3.956 1.784 5.634 3.104 1.565 1.231 2.976 2.672 4.31 4.144 1.208 1.334 2.066 2.923 2.832 4.545 1.196 2.533 1.976 5.155 1.897 7.972-.017.52-.005 1.036-.006 1.552Zm-1.653-5.132c-.12-.885-.194-1.911-.417-2.906-.636-2.864-2.346-5.1-4.625-6.926-1.294-1.038-2.705-1.94-4.095-2.857-.471-.31-1.018-.596-1.568-.692-1.414-.252-2.844-.488-4.276-.56-2.488-.122-4.722-.744-6.599-2.42-1.382-1.234-2.887-1.354-4.323-.268-1.628 1.23-3.481 1.951-5.37 2.666-1.384.523-2.717 1.183-4.048 1.835-1.112.545-1.76 1.396-1.744 2.684.01.722-.333 1.326-1.023 1.726-.575.336-1.128.707-1.655 1.111-1.472 1.124-2.619 2.389-2.867 4.352-.195 1.553-.68 3.088-1.778 4.367-.366.44-.594.974-.654 1.536-.102 1.161-.06 2.336-.03 3.503.008.313.148.648.313.923.379.65.792 1.28 1.237 1.89 1.077 1.453 2.014 2.94 2.23 4.786.21 1.788 1.1 3.244 2.608 4.356 2.182 1.611 4.285 3.321 6.5 4.89 1.19.846 2.465 1.585 4.035 1.756 1.57.172 3.11.586 4.518 1.353.295.154.619.25.952.283 1.987.208 3.825-.27 5.57-1.17.546-.283 1.11-.54 1.676-.785 1.363-.592 2.874-.98 4.062-1.804 1.32-.92 2.733-1.327 4.25-1.583.654-.112 1.19-.373 1.616-.846.509-.56.98-1.153 1.51-1.694.548-.56.944-1.154 1.04-1.95.147-1.22.686-2.299 1.37-3.334 1.156-1.75 1.814-3.683 2.156-5.739.09-.539.141-.995-.134-1.47-.797-1.369-.472-2.924-.724-4.382-.127-.788.167-1.65.29-2.633l-.003.002ZM51.667 4.182c-.336-.36-.443-.523-.595-.624-.275-.185-.575-.335-.867-.495-2.5-1.365-5.238-2.03-8.036-2.506-.562-.096-1.153-.053-1.726-.032-.15.005-.328.146-.422.273-.044.058.054.26.136.356a5.37 5.37 0 0 0 2.35 1.57c1.579.55 3.24.853 4.917.895.711.019 1.42.15 2.128.243.603.083 1.206.182 2.115.32Zm-21.24 39.352c-1.678-1.33-3.15-2.518-4.646-3.675a168.827 168.827 0 0 0-3.772-2.805c-.143-.104-.367-.101-.678-.18 1.526 2.485 6.622 6.259 9.096 6.66ZM19.12 12.504c1.012-.749 1.948-1.538 2.976-2.19 1.441-.91 1.993-2.043 1.652-3.986-1.022.81-1.752 1.787-2.54 2.675-.834.936-1.451 2.05-2.146 3.098-.054.085.033.252.058.404Zm34.129 28.35c-.944-.062-1.895.1-2.487.593-1.124.938-2.46 1.409-3.82 1.877-.715.246-1.388.607-2.061.951-.093.048-.11.3-.091.45.006.05.258.133.362.099 1.221-.404 2.483-.73 3.64-1.269 1.418-.66 2.75-1.495 4.107-2.27.142-.077.217-.26.35-.43ZM17.184 27.862c-.271.776-.218 1.205-.047 1.662.473 1.269.76 2.608 1.614 3.716.316.411.38 1.33.964 1.132.514-.173-.087-.9-.122-1.391-.135-1.875-1.152-3.386-2.409-5.119Zm9.157-23.345.127.185c.705-.254 1.417-.493 2.115-.765 1.518-.59 3.03-1.191 4.538-1.803.305-.125.583-.324.843-.526.072-.058.06-.251.037-.371-.012-.054-.156-.112-.238-.116a1.532 1.532 0 0 0-.417.067c-2.05.565-3.983 1.4-5.834 2.415-.432.237-.784.606-1.171.914ZM62.345 24.65c.124-.14.22-.198.227-.263.2-2.043-.023-4.067-.312-6.086-.014-.101-.16-.246-.258-.259-.109-.013-.279.074-.345.169-.108.15-.176.324-.196.506a18.814 18.814 0 0 0 .337 4.973c.065.33.347.621.547.96Zm-45.656-5.636c.8-.296.92-.831 1.005-1.315.21-1.179.732-2.314.56-3.56-.837 1.488-1.579 2.995-1.565 4.875ZM36.05 44.9c-1.793-.769-2.28-.85-3.876-.634.677.248 1.286.643 1.898.65.639.009 1.33.767 1.979-.016Z" fill="#3C322D"/><path d="M39.75 29.603c-1.227-.021-2.069-.519-2.693-1.48-.58-.897-1.547-1.362-2.433-1.915-1.116-.696-2.023-1.481-2.281-2.892-.179-.957.03-1.788.43-2.543.336-.631.936-1.218 1.566-1.593.684-.407 1.25-.791 1.566-1.543.357-.865 1.257-.918 2.054-1.073.75-.147 1.514-.24 2.254-.424 1.012-.25 1.93-.173 2.67.59.57.594 1.238 1.019 1.982 1.378.774.374 1.03.81.787 1.591-.165.53-.005.891.198 1.314.223.462.452.93.605 1.418.51 1.621-.077 2.986-1.646 3.708-.972.448-1.717 1.044-1.96 2.093-.096.422-.368.662-.753.772-.776.22-1.564.402-2.346.599Zm5.147-6.798c.025-2.857-2.208-5.14-5.112-5.144-2.606 0-5.228 1.71-5.33 4.986-.081 2.623 2.172 5.065 5.109 5.074 3.577.018 5.264-2.39 5.333-4.916Zm-10.47 2.731c0-.366.036-.554-.005-.723-.386-1.551-.636-3.088.238-4.583.063-.107-.082-.328-.131-.497-.172.054-.379.065-.509.168-1.443 1.149-2.087 3.907.407 5.635Zm5.36-8.592c.605.215.95.367 1.31.462 1.33.34 2.466.954 3.256 2.086.156.222.357.553.654.3.159-.136.21-.55.12-.757-.124-.275-.403-.618-.672-.672-.731-.148-1.131-.662-1.608-1.11-.8-.745-1.696-.979-3.06-.309Zm-.081 11.245-.018-.108c-.384 0-.77-.032-1.148.013-.194.023-.37.183-.554.28.167.144.313.37.506.417 1.03.252 2.07.306 3.087-.08.174-.066.367-.152.476-.288.096-.115.128-.32.108-.475-.007-.058-.248-.145-.367-.126-.698.106-1.393.24-2.087.365l-.003.002Zm5.272-2.93c.715-.129 1.034-.52 1.075-1.12.031-.506.024-1.013-.022-1.518-.011-.133-.203-.252-.312-.378-.16.146-.482.342-.453.43.29.876-.316 1.66-.288 2.584v.002ZM51.513 29.214c-.042.02-.207.154-.386.173-.163.018-.401-.035-.503-.146-.507-.555-1-1.126-1.454-1.723-.12-.156-.168-.576-.1-.613.223-.119.66-.243.756-.14.575.614 1.08 1.29 1.599 1.951.05.066.035.18.088.498ZM27.195 34.023c.265.021.79.037 1.3.121.128.022.298.263.298.408 0 .144-.147.393-.274.423-.994.24-1.983.298-2.863-.346a.43.43 0 0 1-.14-.354c.019-.096.173-.23.277-.238.381-.03.764-.014 1.402-.014ZM58.345 13.746l.377.2c-.107.184-.172.482-.328.535-.716.255-1.45.459-2.197.608-.215.041-.527-.164-.725-.332-.229-.196-.092-.62.196-.663.847-.126 1.7-.223 2.677-.348ZM33.042 38.152c.397.18.73.23.893.423.445.535.852 1.099 1.218 1.687.179.28.016.584-.285.664-.165.045-.464-.086-.585-.23a18.385 18.385 0 0 1-1.347-1.78c-.095-.146.053-.442.106-.764ZM48.643 15.838c.025-.163 0-.35.08-.423.107-.095.336-.173.447-.122.15.07.248.262.351.412.288.419.574.84.848 1.269.123.192.288.396.298.603.011.192-.109.44-.258.572-.082.074-.423.026-.507-.076-.55-.678-1.21-1.312-1.259-2.235ZM50.355 8.64c-.12.692-.167 1.2-.306 1.688a1.398 1.398 0 0 1-.476.669c-.158.123-.433.105-.655.15-.017-.2-.082-.41-.045-.602.116-.589.272-1.171.41-1.756.012-.046.009-.094.022-.138.11-.353.347-.622.726-.476.191.074.28.397.324.465ZM40.091 13.14c.335.04.768.062 1.18.159.142.033.35.279.326.385-.043.19-.206.44-.378.496a1.473 1.473 0 0 1-.838.004c-.477-.147-.92-.196-1.395-.004-.312.127-.605-.006-.688-.307-.111-.404.202-.599.553-.656.375-.06.763-.05 1.24-.077ZM47.516 33.02c-.135.572-.238 1.074-.384 1.565-.029.096-.238.226-.326.204-.158-.037-.381-.158-.413-.284a1.836 1.836 0 0 1-.024-.83c.112-.503.222-.98.012-1.494-.1-.246-.072-.639.314-.638.208 0 .507.25.6.455.152.33.162.717.221 1.021ZM41.659 32.872c-.078.135-.115.293-.217.361-.627.419-1.255.84-1.914 1.206-.169.093-.465.035-.68-.026-.314-.09-.38-.492-.119-.655a52.41 52.41 0 0 1 2.19-1.305c.12-.067.358.005.512.079.104.05.149.214.228.34ZM33.673 5.973c.102.058.293.109.319.2.249.888.489 1.78.686 2.68.055.249-.286.388-.515.239-.72-.47-1.168-2.208-.748-2.935.043-.072.15-.109.258-.184ZM42.566 8.497c-.217-.14-.45-.211-.482-.333-.034-.131.078-.355.2-.46.527-.458 1.08-.889 1.654-1.29.193-.132.595-.226.744-.122.351.239.167.576-.078.823-.329.333-.655.683-1.033.952-.29.202-.663.29-1.005.43ZM28.881 13.192l-.526.482c-.15-.157-.372-.288-.435-.476a33.613 33.613 0 0 1-.665-2.236c-.027-.103.06-.314.15-.35.145-.057.385-.08.495 0 .219.156.468.366.54.6.187.612.286 1.25.441 1.98ZM23.12 25.526c-.482.857-.849 1.735-1.748 2.203-.15.078-.485-.022-.647-.147-.275-.212 0-.388.134-.568.422-.563.812-1.15 1.26-1.691.115-.14.409-.208.608-.189.136.012.247.236.394.392ZM28.574 25.598c.252.142.434.184.468.277.056.152.085.391 0 .497-.138.168-.374.265-.578.378-.528.293-1.049.603-1.597.853-.168.076-.47.053-.62-.05-.306-.211-.198-.55.048-.7.754-.457 1.546-.857 2.279-1.255ZM55.865 21.715c-.194.424-.467 1.064-.79 1.678-.05.095-.363.147-.496.09-.123-.053-.258-.294-.233-.424.13-.684.274-1.37.492-2.029.067-.201.368-.384.6-.451.085-.025.31.288.416.48.061.107.011.273.011.656ZM22.97 16.62c.854.743.752 1.751.847 2.683.017.173-.205.42-.382.545-.093.066-.47-.04-.48-.1a51.938 51.938 0 0 1-.32-2.833c-.007-.08.194-.18.334-.295ZM42.93 39.618c.143.037.284.081.422.134.513.23 1.03.455 1.53.708.238.12.476.27.648.462.197.222-.028.648-.304.59-.931-.195-1.84-.468-2.537-1.142-.103-.1-.1-.35-.067-.515.02-.094.2-.158.308-.237ZM31.6 16.892c.05.15.22.38.16.526-.313.77-.675 1.522-1.043 2.269-.046.091-.238.173-.353.158-.1-.012-.238-.148-.264-.252-.195-.832.42-2.321 1.107-2.696.07-.039.183-.005.394-.005ZM58.221 29.525c-.107-.066-.33-.146-.446-.3-.047-.063.103-.344.232-.434a21.18 21.18 0 0 1 1.767-1.134c.164-.093.506-.1.627.004.111.097.128.462.027.595-.51.69-1.155 1.216-2.207 1.27ZM54.684 35.463c-.442-.044-.634-.049-.818-.089-.078-.016-.194-.106-.195-.164a.601.601 0 0 1 .1-.372.74.74 0 0 1 .358-.216c.68-.198 1.362-.397 2.053-.558.15-.035.466.06.486.144.045.197-.009.435-.089.634-.042.105-.21.193-.34.23-.591.158-1.185.299-1.555.391ZM34.18 30.697c-.05.202-.129.647-.282 1.068-.038.104-.335.204-.472.166-.137-.038-.298-.256-.294-.393.015-.778.054-1.557.136-2.331.017-.17.238-.318.365-.476.153.156.4.294.438.473.087.402.068.824.108 1.493ZM66.091 6.357c0-1.648.412-2.897 1.234-3.748.832-.86 1.897-1.29 3.197-1.29 1.299 0 2.332.37 3.098 1.113.776.743 1.164 1.929 1.164 3.559 0 1.63-.412 2.86-1.234 3.694-.823.833-1.92 1.25-3.295 1.25-1.187 0-2.159-.331-2.916-.992-.392-.344-.701-.82-.925-1.426-.215-.616-.323-1.336-.323-2.16Zm4.389-4.903c-.945 0-1.72.408-2.328 1.223-.598.815-.897 2.01-.897 3.585 0 1.576.285 2.725.855 3.45.57.724 1.327 1.086 2.271 1.086.954 0 1.73-.407 2.328-1.222.607-.824.911-2.015.911-3.572 0-1.566-.29-2.716-.87-3.45-.57-.733-1.326-1.1-2.27-1.1ZM77.209 10.88h-1.164V1.373h1.164v4.373h4.556V1.373h1.164v9.507h-1.164V5.882H77.21v4.998ZM88.91 10.88h-.182l1.22-9.507h.463l2.944 8.787 2.93-8.787h.463l1.22 9.507h-1.164l-.968-7.606L93.3 10.88h-.884L89.85 3.37l-.94 7.51ZM105.734 1.373a.888.888 0 0 1 .266.665c0 .227-.051.458-.154.693l-2.51 4.93v3.219h-1.163V7.96l-2.805-6.587h1.192l2.678 6.125 2.44-4.767c.102-.226.154-.462.154-.706 0-.245-.07-.435-.211-.57l.113-.082ZM1.976 13.378a48.178 48.178 0 0 1 2.125-.048c.708 0 1.45.072 2.224.215a8.06 8.06 0 0 1 2.322.814 6.018 6.018 0 0 1 1.952 1.508c.543.606.98 1.412 1.31 2.417.329 1.005.493 2.226.493 3.662s-.247 2.728-.74 3.877c-.478 1.133-1.137 2.002-1.977 2.609-1.63 1.18-3.6 1.77-5.905 1.77-.807 0-1.655-.031-2.545-.095H0v-16.73h1.976Zm.075 16.538c.345.031.782.047 1.309.047.527 0 .922-.008 1.186-.024.263-.016.626-.08 1.087-.191.461-.128.89-.295 1.285-.503.395-.207.807-.51 1.235-.91a5.974 5.974 0 0 0 1.136-1.459c.709-1.308 1.063-3.016 1.063-5.122 0-1.5-.19-2.792-.568-3.877-.38-1.1-.816-1.914-1.31-2.441a5.093 5.093 0 0 0-1.754-1.245c-.692-.319-1.244-.502-1.655-.55-.412-.048-.89-.072-1.433-.072-.544 0-1.07.024-1.581.072v16.275ZM66.492 30.107h-.32V13.354h.84l10.277 15.485V13.354h.321v16.753h-1.803l-9.315-13.881v13.88ZM92.823 13.354h.322v9.573c0 2.505-.511 4.348-1.532 5.529-1.022 1.164-2.356 1.747-4.003 1.747-1.037 0-1.918-.088-2.643-.264a5.756 5.756 0 0 1-2.05-1.029c-1.319-.989-1.977-2.983-1.977-5.983v-9.573h2.05v9.55c0 2.903.453 4.841 1.36 5.815.46.479.938.806 1.432.981.51.176 1.12.263 1.828.263 1.582 0 2.841-.558 3.78-1.675.956-1.133 1.433-2.928 1.433-5.385v-9.55ZM101.573 30.107h-2.05V13.593h-4.275v-.24h10.624v.24h-4.299v16.514Z" fill="#3C322D"/></symbol><symbol id="icon-burger" viewBox="0 0 30 16"><rect width="30" height="2" rx="1" fill="#3C322D"/><rect y="7" width="30" height="2" rx="1" fill="#3C322D"/><rect y="14" width="30" height="2" rx="1" fill="#3C322D"/></symbol><symbol id="icon-close" viewBox="0 0 32 32"><path d="M23.884 6.706 16 14.59 8.116 6.706a.998.998 0 0 0-1.41 1.41L14.586 16l-7.882 7.882a.997.997 0 1 0 1.41 1.412L16 17.412l7.884 7.884a.998.998 0 0 0 1.41-1.41l-7.884-7.884 7.884-7.886a.997.997 0 1 0-1.41-1.412v.002Z"/></symbol><symbol id="icon-phone" viewBox="0 0 32 32"><path d="M22 20c-2 2-2 4-4 4s-4-2-6-4-4-4-4-6 2-2 4-4-4-8-6-8-6 6-6 6c0 4 4.109 12.109 8 16s12 8 16 8c0 0 6-4 6-6s-6-8-8-6z"/></symbol><symbol id="icon-location" viewBox="0 0 32 32"><path d="M16 0C10.477 0 6 4.477 6 10c0 10 10 22 10 22s10-12 10-22c0-5.523-4.477-10-10-10zm0 16a6 6 0 1 1 0-12 6 6 0 0 1 0 12z"/></symbol><symbol id="icon-star" viewBox="0 0 24 24"><path d="M15.24 1.561c.505-1.551 2.7-1.551 3.203 0l2.558 7.872c.227.68.857 1.162 1.6 1.162h8.278c1.632 0 2.309 2.088.99 3.048l-6.696 4.864a1.683 1.683 0 0 0-.608 1.895l-.003-.012 2.557 7.872c.505 1.553-1.272 2.843-2.592 1.883l-6.695-4.864a1.68 1.68 0 0 0-1.985.003l.005-.003-6.696 4.864c-1.319.96-3.096-.332-2.59-1.883l2.557-7.872a1.682 1.682 0 0 0-.607-1.88l-.005-.003-6.696-4.864c-1.319-.96-.64-3.048.99-3.048h8.276c.744 0 1.374-.482 1.598-1.15l.003-.012 2.56-7.872z"/></symbol><symbol id="icon-fourstars" viewBox="0 0 181 32"><path fill="#edd501" style="fill:var(--color1,#edd501)" d="M14.732 3.903c.399-1.228 2.137-1.228 2.536 0l2.025 6.232c.178.549.69.921 1.268.921h6.552c1.292 0 1.829 1.653.784 2.412l-5.301 3.851a1.333 1.333 0 0 0-.484 1.491l2.025 6.232c.399 1.228-1.007 2.25-2.052 1.491l-5.301-3.851a1.334 1.334 0 0 0-1.567 0l-5.301 3.851c-1.045.759-2.451-.262-2.052-1.491l2.025-6.232a1.335 1.335 0 0 0-.484-1.491l-5.301-3.851c-1.045-.759-.508-2.412.784-2.412h6.552c.578 0 1.09-.372 1.268-.921l2.025-6.232z"/><path fill="none" stroke="#edd501" style="stroke:var(--color1,#edd501)" stroke-width="1.333" d="m165.968 4.109 2.024 6.232a2 2 0 0 0 1.903 1.382h6.552c.645 0 .915.826.392 1.206l-5.301 3.851a2 2 0 0 0-.727 2.236l2.025 6.232c.2.614-.504 1.125-1.027.745l-5.3-3.851a2.002 2.002 0 0 0-2.352 0l-5.3 3.851c-.523.38-1.227-.131-1.027-.745l2.025-6.232a1.998 1.998 0 0 0-.727-2.236l-5.301-3.851c-.523-.38-.253-1.206.392-1.206h6.552a2 2 0 0 0 1.903-1.382l2.024-6.232c.2-.614 1.069-.614 1.269 0z"/><path fill="#edd501" style="fill:var(--color1,#edd501)" d="M126.732 3.903c.399-1.228 2.137-1.228 2.536 0l2.025 6.232c.178.549.69.921 1.268.921h6.552c1.292 0 1.828 1.653.784 2.412l-5.301 3.851a1.333 1.333 0 0 0-.484 1.491l2.024 6.232c.4 1.228-1.007 2.25-2.051 1.491l-5.302-3.851a1.334 1.334 0 0 0-1.567 0l-5.301 3.851c-1.045.759-2.451-.262-2.052-1.491l2.025-6.232a1.334 1.334 0 0 0-.484-1.491l-5.301-3.851c-1.045-.759-.508-2.412.784-2.412h6.552c.578 0 1.09-.372 1.268-.921l2.025-6.232zM89.399 3.903c.399-1.228 2.137-1.228 2.536 0l2.025 6.232c.178.549.69.921 1.268.921h6.552c1.292 0 1.829 1.653.784 2.412l-5.301 3.851a1.333 1.333 0 0 0-.484 1.491l2.025 6.232c.399 1.228-1.007 2.25-2.052 1.491l-5.301-3.851a1.334 1.334 0 0 0-1.567 0l-5.301 3.851c-1.045.759-2.451-.262-2.052-1.491l2.025-6.232a1.334 1.334 0 0 0-.484-1.491l-5.301-3.851c-1.045-.759-.508-2.412.784-2.412h6.552c.578 0 1.09-.372 1.268-.921L89.4 3.903zM52.065 3.903c.399-1.228 2.137-1.228 2.536 0l2.025 6.232c.178.549.69.921 1.268.921h6.552c1.292 0 1.829 1.653.784 2.412l-5.301 3.851a1.333 1.333 0 0 0-.484 1.491l2.025 6.232c.399 1.228-1.007 2.25-2.052 1.491l-5.301-3.851a1.334 1.334 0 0 0-1.567 0l-5.301 3.851c-1.045.759-2.451-.262-2.052-1.491l2.025-6.232a1.334 1.334 0 0 0-.484-1.491l-5.301-3.851c-1.045-.759-.508-2.412.784-2.412h6.552c.578 0 1.09-.372 1.268-.921l2.025-6.232z"/></symbol><symbol id="icon-fivestars" viewBox="0 0 181 32"><path fill="#edd501" style="fill:var(--color1,#edd501)" d="M14.732 3.903c.399-1.228 2.137-1.228 2.536 0l2.025 6.232c.178.549.69.921 1.268.921h6.552c1.292 0 1.829 1.653.784 2.412l-5.301 3.851a1.333 1.333 0 0 0-.484 1.491l2.025 6.232c.399 1.228-1.007 2.25-2.052 1.491l-5.301-3.851a1.334 1.334 0 0 0-1.567 0l-5.301 3.851c-1.045.759-2.451-.262-2.052-1.491l2.025-6.232a1.335 1.335 0 0 0-.484-1.491l-5.301-3.851c-1.045-.759-.508-2.412.784-2.412h6.552c.578 0 1.09-.372 1.268-.921l2.025-6.232zM164.065 3.903c.399-1.228 2.137-1.228 2.536 0l2.025 6.232c.179.549.689.921 1.268.921h6.552c1.292 0 1.828 1.653.784 2.412l-5.301 3.851a1.333 1.333 0 0 0-.484 1.491l2.024 6.232c.4 1.228-1.007 2.25-2.051 1.491l-5.301-3.851a1.336 1.336 0 0 0-1.568 0l-5.301 3.851c-1.044.759-2.451-.262-2.051-1.491l2.024-6.232a1.334 1.334 0 0 0-.484-1.491l-5.301-3.851c-1.044-.759-.508-2.412.784-2.412h6.552c.579 0 1.089-.372 1.268-.921l2.025-6.232zM126.732 3.903c.399-1.228 2.137-1.228 2.536 0l2.025 6.232c.178.549.69.921 1.268.921h6.552c1.292 0 1.828 1.653.784 2.412l-5.301 3.851a1.333 1.333 0 0 0-.484 1.491l2.024 6.232c.4 1.228-1.007 2.25-2.051 1.491l-5.302-3.851a1.334 1.334 0 0 0-1.567 0l-5.301 3.851c-1.045.759-2.451-.262-2.052-1.491l2.025-6.232a1.334 1.334 0 0 0-.484-1.491l-5.301-3.851c-1.045-.759-.508-2.412.784-2.412h6.552c.578 0 1.09-.372 1.268-.921l2.025-6.232zM89.399 3.903c.399-1.228 2.137-1.228 2.536 0l2.025 6.232c.178.549.69.921 1.268.921h6.552c1.292 0 1.829 1.653.784 2.412l-5.301 3.851a1.333 1.333 0 0 0-.484 1.491l2.025 6.232c.399 1.228-1.007 2.25-2.052 1.491l-5.301-3.851a1.334 1.334 0 0 0-1.567 0l-5.301 3.851c-1.045.759-2.451-.262-2.052-1.491l2.025-6.232a1.334 1.334 0 0 0-.484-1.491l-5.301-3.851c-1.045-.759-.508-2.412.784-2.412h6.552c.578 0 1.09-.372 1.268-.921L89.4 3.903zM52.065 3.903c.399-1.228 2.137-1.228 2.536 0l2.025 6.232c.178.549.69.921 1.268.921h6.552c1.292 0 1.829 1.653.784 2.412l-5.301 3.851a1.333 1.333 0 0 0-.484 1.491l2.025 6.232c.399 1.228-1.007 2.25-2.052 1.491l-5.301-3.851a1.334 1.334 0 0 0-1.567 0l-5.301 3.851c-1.045.759-2.451-.262-2.052-1.491l2.025-6.232a1.334 1.334 0 0 0-.484-1.491l-5.301-3.851c-1.045-.759-.508-2.412.784-2.412h6.552c.578 0 1.09-.372 1.268-.921l2.025-6.232z"/></symbol></defs></svg>