<svg aria-hidden="true" style="position: absolute; width: 0; height: 0; overflow: hidden;" version="1.1" xmlns="http://www.w3.org/2000/svg" xmlns:xlink="http://www.w3.org/1999/xlink">
<defs>
<symbol id="icon-facebook" viewBox="0 0 16 32">
<path d="M14.512 0.006l-3.616-0.006c-4.064 0-6.69 3.092-6.69 7.876v3.63h-3.638c-0.314 0-0.568 0.294-0.568 0.654v5.26c0 0.36 0.254 0.652 0.568 0.652h3.638v13.276c0 0.36 0.254 0.652 0.568 0.652h4.746c0.314 0 0.568-0.292 0.568-0.652v-13.276h4.252c0.314 0 0.568-0.292 0.568-0.652l0.002-5.26c0-0.174-0.060-0.34-0.166-0.462-0.097-0.116-0.241-0.189-0.402-0.192h-4.254v-3.078c0-1.48 0.308-2.23 1.988-2.23h2.436c0.314 0 0.568-0.294 0.568-0.654v-4.884c0-0.36-0.254-0.652-0.568-0.654z"></path>
</symbol>
<symbol id="icon-twitter" viewBox="0 0 34 32">
<path d="M34.133 3.669c-1.17 0.587-2.528 1.021-3.96 1.229l-0.072 0.009c1.451-0.969 2.558-2.492 3.078-4.324-1.269 0.857-2.754 1.511-4.349 1.875l-0.088 0.017c-1.284-1.527-3.115-2.475-5.111-2.475-3.874 0-6.993 3.516-6.993 7.825 0 0.619 0.047 1.216 0.162 1.783-5.818-0.318-10.965-3.435-14.423-8.183-0.604 1.145-0.958 2.503-0.958 3.944 0 0.004 0 0.008 0 0.012v-0.001c0 2.709 1.248 5.109 3.108 6.5-1.177-0.040-2.263-0.394-3.188-0.98l0.026 0.015v0.085c0 3.804 2.426 6.961 5.606 7.689-0.57 0.173-1.19 0.256-1.835 0.256-0.448 0-0.9-0.028-1.325-0.132 0.907 3.098 3.479 5.376 6.539 5.449-2.381 2.082-5.404 3.337-8.676 3.337-0.574 0-1.124-0.030-1.675-0.107 3.1 2.234 6.773 3.509 10.735 3.509 12.877 0 19.917-11.925 19.917-22.259 0-0.346-0.011-0.681-0.026-1.011 1.395-1.13 2.563-2.475 3.469-3.993l0.038-0.068z"></path>
</symbol>
<symbol id="icon-logo" viewBox="0 0 72 32">
<path d="M42.83 15.743c0 0.257-0.008 0.513 0 0.77 0.091 2.611-0.746 4.963-2.087 7.181-0.37 0.589-0.791 1.334-1.183 2.096l-0.084 0.18c-0.32 0.639-0.764 1.087-1.455 1.348-0.386 0.146-0.743 0.398-1.067 0.658-1.489 1.199-3.178 2.058-4.985 2.662-1.2 0.402-2.435 0.756-3.739 0.739-0.389-0.004-0.778 0.112-1.168 0.113s-0.779-0.122-1.164-0.106c-1.682 0.070-3.239-0.434-4.785-0.963-1.688-0.577-3.178-1.489-4.579-2.576-1.979-1.533-3.388-3.464-4.424-5.674-0.558-1.192-1.013-2.421-1.142-3.743-0.022-0.219-0.096-0.436-0.162-0.65-0.47-1.483-0.2-2.937 0.091-4.415 0.223-1.13 0.451-2.247 0.885-3.319 1.145-2.838 2.964-5.162 5.483-6.988 2.1-1.52 4.451-2.455 7.006-2.856 2.934-0.461 5.796-0.129 8.574 0.947 1.386 0.539 2.693 1.221 3.836 2.126 1.066 0.842 2.026 1.829 2.934 2.836 0.822 0.914 1.407 2.002 1.928 3.112 0.814 1.734 1.345 3.53 1.292 5.458-0.012 0.357-0.003 0.71-0.004 1.063zM41.705 12.23c-0.082-0.606-0.132-1.309-0.284-1.99-0.433-1.961-1.597-3.491-3.149-4.741-0.881-0.711-1.842-1.328-2.788-1.956-0.321-0.213-0.693-0.409-1.068-0.474-0.963-0.173-1.936-0.334-2.911-0.383-1.694-0.084-3.215-0.511-4.493-1.659-0.941-0.844-1.966-0.926-2.943-0.182-1.108 0.842-2.37 1.336-3.656 1.825-0.942 0.359-1.85 0.81-2.756 1.256-0.757 0.374-1.198 0.956-1.187 1.838 0.007 0.494-0.227 0.908-0.697 1.182-0.392 0.229-0.768 0.483-1.127 0.761-1.002 0.769-1.783 1.635-1.952 2.979-0.133 1.063-0.463 2.114-1.211 2.989-0.24 0.287-0.4 0.647-0.444 1.043l-0.001 0.009c-0.069 0.795-0.041 1.599-0.020 2.399 0.005 0.214 0.101 0.443 0.213 0.631 0.258 0.445 0.539 0.877 0.842 1.294 0.733 0.994 1.371 2.013 1.518 3.277 0.143 1.224 0.749 2.221 1.776 2.982 1.486 1.103 2.917 2.274 4.426 3.348 0.81 0.579 1.678 1.085 2.747 1.202s2.117 0.401 3.076 0.926c0.201 0.106 0.421 0.172 0.648 0.193 1.353 0.143 2.604-0.184 3.792-0.801 0.372-0.193 0.756-0.369 1.141-0.537 0.928-0.405 1.957-0.671 2.766-1.235 0.899-0.629 1.861-0.908 2.894-1.084 0.445-0.076 0.81-0.255 1.1-0.579 0.347-0.383 0.667-0.79 1.028-1.16 0.373-0.383 0.643-0.79 0.708-1.334 0.1-0.835 0.467-1.573 0.933-2.282 0.787-1.198 1.235-2.522 1.468-3.928 0.061-0.37 0.096-0.682-0.091-1.007-0.543-0.938-0.321-2.002-0.493-3.001-0.086-0.539 0.114-1.13 0.197-1.802l-0.002 0.001zM35.178 2.863c-0.229-0.246-0.302-0.358-0.405-0.428-0.187-0.126-0.392-0.229-0.59-0.338-1.702-0.935-3.566-1.389-5.471-1.716-0.383-0.066-0.785-0.036-1.175-0.022-0.102 0.003-0.223 0.1-0.287 0.187-0.030 0.039 0.037 0.178 0.093 0.244 0.421 0.485 0.96 0.855 1.574 1.067l0.026 0.008c1.075 0.378 2.206 0.585 3.348 0.613 0.484 0.014 0.967 0.103 1.449 0.167 0.411 0.057 0.821 0.125 1.44 0.219zM20.716 29.804c-1.142-0.91-2.145-1.724-3.163-2.516-0.565-0.445-1.401-1.076-2.245-1.694l-0.323-0.226c-0.097-0.072-0.25-0.069-0.462-0.123 1.039 1.701 4.509 4.285 6.193 4.559zM13.018 8.561c0.689-0.513 1.326-1.053 2.026-1.5 0.981-0.624 1.357-1.398 1.125-2.729-0.696 0.555-1.193 1.223-1.729 1.832-0.568 0.64-0.988 1.403-1.461 2.121-0.037 0.058 0.022 0.172 0.040 0.276zM36.255 27.969c-0.643-0.043-1.29 0.067-1.693 0.406-0.765 0.641-1.675 0.964-2.601 1.285-0.487 0.168-0.945 0.415-1.403 0.651-0.063 0.033-0.075 0.206-0.062 0.308 0.004 0.035 0.176 0.091 0.246 0.068 0.831-0.276 1.691-0.499 2.478-0.869 0.965-0.451 1.872-1.023 2.796-1.554 0.097-0.052 0.148-0.178 0.238-0.294zM11.7 19.074c-0.184 0.531-0.148 0.825-0.032 1.138 0.322 0.868 0.517 1.785 1.099 2.544 0.215 0.281 0.259 0.911 0.656 0.775 0.35-0.118-0.059-0.616-0.083-0.953-0.092-1.283-0.784-2.318-1.64-3.504zM17.934 3.092l0.086 0.127c0.48-0.174 0.965-0.338 1.44-0.524 1.034-0.404 2.063-0.815 3.090-1.234 0.208-0.086 0.397-0.222 0.574-0.361 0.049-0.039 0.041-0.172 0.025-0.253-0.008-0.037-0.106-0.077-0.162-0.079-0.102 0.002-0.199 0.019-0.291 0.048l0.007-0.002c-1.396 0.386-2.712 0.959-3.972 1.653-0.294 0.162-0.534 0.415-0.797 0.626zM42.448 16.875c0.084-0.095 0.15-0.135 0.155-0.18 0.136-1.398-0.016-2.783-0.212-4.165-0.010-0.069-0.109-0.169-0.176-0.177-0.074-0.010-0.19 0.050-0.235 0.115-0.071 0.097-0.118 0.215-0.133 0.342l-0 0.003c-0.017 0.251-0.027 0.544-0.027 0.839 0 0.908 0.093 1.794 0.271 2.65l-0.015-0.084c0.044 0.226 0.236 0.426 0.372 0.657zM11.363 13.017c0.545-0.202 0.626-0.569 0.684-0.9 0.143-0.807 0.498-1.584 0.381-2.437-0.57 1.019-1.075 2.051-1.066 3.338zM24.545 30.739c-1.221-0.527-1.552-0.582-2.639-0.434 0.461 0.17 0.876 0.441 1.292 0.445 0.435 0.007 0.906 0.526 1.347-0.010z"></path>
<path d="M27.064 20.267c-0.835-0.015-1.409-0.355-1.834-1.014-0.395-0.613-1.053-0.933-1.657-1.311-0.76-0.477-1.377-1.014-1.553-1.98-0.122-0.655 0.020-1.223 0.293-1.741 0.229-0.432 0.637-0.834 1.066-1.091 0.466-0.279 0.851-0.542 1.066-1.057 0.243-0.592 0.856-0.628 1.398-0.735 0.511-0.1 1.031-0.165 1.535-0.29 0.689-0.172 1.314-0.118 1.818 0.404 0.388 0.406 0.843 0.697 1.349 0.944 0.527 0.255 0.701 0.554 0.536 1.089-0.112 0.362-0.003 0.609 0.135 0.899 0.152 0.317 0.308 0.637 0.412 0.971 0.347 1.11-0.052 2.045-1.121 2.539-0.662 0.306-1.169 0.715-1.334 1.433-0.065 0.289-0.251 0.453-0.513 0.528-0.528 0.151-1.065 0.275-1.597 0.411zM30.568 15.613c0.017-1.955-1.503-3.519-3.48-3.521-1.774 0-3.559 1.17-3.629 3.413-0.055 1.795 1.479 3.468 3.478 3.474 2.435 0.012 3.584-1.637 3.631-3.366zM23.44 17.482c0-0.251 0.024-0.379-0.003-0.494-0.263-1.062-0.433-2.115 0.162-3.138 0.043-0.073-0.056-0.225-0.089-0.34-0.117 0.037-0.258 0.045-0.347 0.116-0.982 0.786-1.421 2.674 0.277 3.857zM27.089 11.6c0.412 0.147 0.647 0.251 0.892 0.316 0.906 0.234 1.679 0.654 2.217 1.428 0.106 0.152 0.243 0.379 0.445 0.205 0.108-0.093 0.143-0.376 0.082-0.517-0.084-0.189-0.274-0.424-0.458-0.461-0.498-0.101-0.77-0.453-1.095-0.759-0.545-0.511-1.155-0.671-2.083-0.212zM27.034 19.298l-0.012-0.074c-0.261 0-0.524-0.022-0.782 0.009-0.132 0.016-0.252 0.125-0.377 0.193 0.114 0.098 0.213 0.253 0.345 0.285 0.701 0.173 1.409 0.21 2.102-0.054 0.118-0.045 0.25-0.104 0.324-0.197 0.065-0.078 0.087-0.219 0.074-0.325-0.005-0.040-0.169-0.099-0.25-0.086-0.475 0.072-0.948 0.163-1.421 0.25l-0.002 0.001zM30.623 17.292c0.487-0.088 0.704-0.355 0.732-0.766 0.021-0.347 0.016-0.694-0.015-1.040-0.008-0.091-0.138-0.172-0.212-0.259-0.109 0.1-0.328 0.234-0.308 0.295 0.197 0.599-0.215 1.136-0.196 1.769v0.001zM35.073 20c-0.029 0.014-0.141 0.106-0.263 0.118-0.111 0.013-0.273-0.023-0.342-0.099-0.329-0.357-0.653-0.741-0.96-1.139l-0.030-0.040c-0.082-0.107-0.114-0.395-0.068-0.42 0.152-0.082 0.449-0.167 0.515-0.096 0.392 0.42 0.735 0.882 1.089 1.336 0.034 0.046 0.024 0.123 0.060 0.34zM18.516 23.293c0.18 0.014 0.538 0.024 0.885 0.082 0.087 0.015 0.203 0.18 0.203 0.279s-0.1 0.269-0.187 0.29c-0.677 0.163-1.35 0.204-1.949-0.237-0.059-0.054-0.096-0.132-0.096-0.218 0-0.009 0-0.017 0.001-0.026l-0 0.001c0.013-0.066 0.118-0.159 0.189-0.163 0.259-0.020 0.52-0.009 0.955-0.009zM39.724 9.411l0.257 0.136c-0.073 0.127-0.117 0.331-0.223 0.368-0.487 0.174-0.987 0.313-1.496 0.415-0.146 0.029-0.359-0.112-0.494-0.227-0.156-0.133-0.063-0.424 0.133-0.453 0.577-0.086 1.157-0.153 1.823-0.238zM22.497 26.119c0.27 0.123 0.497 0.158 0.608 0.289 0.303 0.366 0.58 0.752 0.829 1.155 0.122 0.192 0.011 0.4-0.194 0.455-0.112 0.030-0.316-0.059-0.398-0.158-0.309-0.361-0.611-0.758-0.888-1.172l-0.029-0.046c-0.065-0.101 0.036-0.303 0.072-0.524zM33.119 10.843c0.017-0.112 0-0.24 0.054-0.29 0.073-0.065 0.229-0.118 0.304-0.083 0.102 0.048 0.169 0.179 0.239 0.282 0.196 0.286 0.391 0.575 0.577 0.868 0.084 0.132 0.196 0.272 0.203 0.414 0.008 0.131-0.074 0.301-0.176 0.391-0.056 0.050-0.288 0.018-0.345-0.052-0.374-0.464-0.824-0.899-0.857-1.53zM34.284 5.915c-0.082 0.474-0.114 0.822-0.208 1.157-0.063 0.186-0.175 0.342-0.322 0.456l-0.002 0.002c-0.108 0.084-0.295 0.072-0.446 0.103-0.012-0.138-0.056-0.281-0.031-0.412 0.079-0.404 0.185-0.802 0.279-1.202 0.008-0.031 0.006-0.065 0.015-0.095 0.075-0.241 0.236-0.426 0.494-0.325 0.13 0.050 0.191 0.272 0.221 0.318zM27.296 8.995c0.228 0.027 0.523 0.043 0.803 0.109 0.097 0.022 0.238 0.191 0.222 0.264-0.029 0.129-0.14 0.3-0.257 0.339-0.087 0.027-0.186 0.043-0.29 0.043-0.1 0-0.197-0.015-0.288-0.042l0.007 0.002c-0.325-0.101-0.626-0.134-0.95-0.002-0.212 0.086-0.412-0.005-0.468-0.211-0.076-0.276 0.138-0.41 0.377-0.449 0.255-0.041 0.52-0.035 0.844-0.053zM32.351 22.606c-0.092 0.392-0.162 0.736-0.261 1.072-0.020 0.066-0.162 0.155-0.222 0.14-0.108-0.026-0.259-0.109-0.281-0.195-0.026-0.096-0.041-0.206-0.041-0.319 0-0.088 0.009-0.174 0.026-0.257l-0.001 0.008c0.076-0.345 0.151-0.671 0.008-1.023-0.068-0.168-0.049-0.437 0.214-0.436 0.142 0 0.345 0.17 0.408 0.311 0.103 0.225 0.11 0.491 0.15 0.699zM28.364 22.505c-0.053 0.092-0.078 0.201-0.148 0.247-0.427 0.287-0.854 0.575-1.303 0.825-0.115 0.064-0.317 0.024-0.463-0.018-0.214-0.062-0.259-0.337-0.081-0.448 0.492-0.306 0.985-0.611 1.491-0.894 0.082-0.045 0.244 0.004 0.349 0.054 0.071 0.034 0.101 0.146 0.155 0.233zM22.926 4.089c0.069 0.040 0.2 0.075 0.217 0.136 0.17 0.609 0.333 1.219 0.467 1.835 0.037 0.171-0.195 0.266-0.351 0.164-0.49-0.321-0.795-1.511-0.509-2.009 0.029-0.050 0.102-0.075 0.176-0.126zM28.981 5.817c-0.148-0.095-0.306-0.145-0.328-0.227-0.023-0.091 0.053-0.244 0.136-0.316 0.335-0.294 0.702-0.583 1.083-0.854l0.043-0.029c0.131-0.090 0.405-0.154 0.507-0.084 0.239 0.164 0.114 0.395-0.053 0.564-0.224 0.228-0.446 0.468-0.703 0.652-0.197 0.138-0.451 0.197-0.684 0.294zM19.664 9.031l-0.358 0.33c-0.102-0.108-0.253-0.197-0.296-0.327-0.124-0.34-0.279-0.851-0.416-1.368l-0.037-0.162c-0.018-0.071 0.041-0.215 0.102-0.24 0.099-0.040 0.262-0.055 0.337 0 0.149 0.107 0.319 0.251 0.368 0.411 0.127 0.418 0.195 0.856 0.3 1.355zM15.741 17.475c-0.328 0.587-0.578 1.188-1.19 1.508-0.102 0.054-0.33-0.015-0.441-0.101-0.187-0.144 0-0.266 0.091-0.388 0.287-0.386 0.553-0.788 0.858-1.158 0.078-0.095 0.278-0.142 0.414-0.129 0.093 0.008 0.168 0.161 0.268 0.268zM19.455 17.525c0.172 0.097 0.296 0.125 0.319 0.189 0.038 0.104 0.058 0.268 0 0.34-0.094 0.115-0.255 0.181-0.394 0.259-0.36 0.201-0.714 0.413-1.087 0.584-0.114 0.052-0.32 0.036-0.422-0.034-0.208-0.145-0.135-0.377 0.033-0.479 0.513-0.313 1.053-0.587 1.552-0.859zM38.036 14.866c-0.132 0.291-0.318 0.729-0.538 1.149-0.034 0.065-0.247 0.101-0.338 0.061-0.084-0.037-0.176-0.202-0.159-0.291 0.089-0.468 0.187-0.937 0.335-1.389 0.046-0.138 0.251-0.263 0.408-0.308 0.058-0.017 0.211 0.197 0.283 0.328 0.042 0.074 0.008 0.187 0.008 0.449zM15.639 11.378c0.581 0.509 0.512 1.199 0.577 1.836 0.012 0.118-0.14 0.288-0.26 0.374-0.063 0.045-0.32-0.027-0.327-0.068-0.073-0.468-0.15-1.134-0.208-1.806l-0.009-0.135c-0.005-0.054 0.132-0.123 0.227-0.202zM29.229 27.123c0.097 0.025 0.193 0.056 0.287 0.092 0.349 0.157 0.701 0.311 1.042 0.485 0.162 0.082 0.324 0.185 0.441 0.316 0.134 0.152-0.019 0.444-0.207 0.404-0.634-0.133-1.253-0.32-1.727-0.782-0.070-0.068-0.068-0.239-0.046-0.353 0.014-0.064 0.136-0.108 0.21-0.162zM21.515 11.564c0.034 0.102 0.15 0.261 0.109 0.361-0.278 0.675-0.516 1.185-0.772 1.686l0.062-0.133c-0.031 0.063-0.162 0.118-0.24 0.109-0.068-0.009-0.162-0.102-0.18-0.172-0.133-0.57 0.286-1.59 0.754-1.846 0.048-0.026 0.125-0.003 0.268-0.003zM39.64 20.214c-0.073-0.046-0.225-0.1-0.304-0.206-0.032-0.042 0.070-0.235 0.158-0.297 0.337-0.246 0.73-0.502 1.135-0.739l0.068-0.037c0.112-0.063 0.344-0.068 0.427 0.003 0.076 0.066 0.087 0.315 0.018 0.407-0.347 0.472-0.786 0.832-1.503 0.869zM37.232 24.279c-0.301-0.031-0.432-0.034-0.557-0.061-0.053-0.012-0.132-0.072-0.133-0.112-0.001-0.008-0.001-0.017-0.001-0.026 0-0.085 0.026-0.164 0.070-0.23l-0.001 0.002c0.064-0.070 0.147-0.122 0.24-0.148l0.004-0.001c0.463-0.136 0.927-0.272 1.398-0.381 0.102-0.024 0.317 0.041 0.331 0.098 0.031 0.136-0.006 0.298-0.061 0.434-0.029 0.072-0.143 0.132-0.231 0.158-0.402 0.108-0.807 0.204-1.059 0.267zM23.271 21.016c-0.034 0.138-0.088 0.443-0.192 0.731-0.026 0.072-0.228 0.14-0.321 0.114s-0.203-0.176-0.2-0.269c0.010-0.533 0.037-1.066 0.093-1.597 0.012-0.116 0.162-0.218 0.248-0.325 0.104 0.107 0.272 0.202 0.298 0.324 0.059 0.275 0.046 0.564 0.074 1.022zM44.998 4.352c0-1.128 0.281-1.983 0.84-2.566 0.566-0.589 1.292-0.883 2.177-0.883s1.588 0.254 2.109 0.763c0.528 0.508 0.792 1.32 0.792 2.436s-0.281 1.959-0.84 2.529c-0.56 0.571-1.307 0.856-2.243 0.856-0.808 0-1.47-0.227-1.985-0.679-0.267-0.236-0.477-0.561-0.63-0.976-0.146-0.422-0.22-0.914-0.22-1.479zM47.986 0.995c-0.643 0-1.171 0.279-1.585 0.837-0.407 0.558-0.611 1.375-0.611 2.454s0.194 1.866 0.582 2.362c0.388 0.496 0.904 0.744 1.546 0.744 0.65 0 1.178-0.279 1.585-0.837 0.413-0.564 0.62-1.379 0.62-2.446 0-1.072-0.197-1.859-0.592-2.361-0.388-0.502-0.903-0.754-1.546-0.754zM52.568 7.449h-0.792v-6.509h0.792v2.994h3.102v-2.994h0.792v6.509h-0.792v-3.422h-3.101v3.422zM60.534 7.449h-0.124l0.831-6.509h0.315l2.004 6.016 1.995-6.016h0.315l0.831 6.509h-0.793l-0.659-5.207-1.727 5.207h-0.602l-1.747-5.142-0.64 5.142zM71.989 0.94c0.112 0.111 0.181 0.264 0.181 0.434 0 0.008-0 0.016-0 0.023l0-0.001c0 0.155-0.035 0.313-0.105 0.474l-1.709 3.375v2.204h-0.792v-1.999l-1.91-4.51h0.812l1.823 4.194 1.661-3.264c0.066-0.142 0.105-0.308 0.105-0.483v-0c0-0.167-0.048-0.298-0.144-0.391l0.077-0.056zM1.345 9.159c0.431-0.021 0.937-0.032 1.446-0.033h0.001c0.482 0 0.987 0.049 1.514 0.147 0.538 0.099 1.065 0.284 1.581 0.558 0.527 0.261 0.97 0.606 1.329 1.032 0.37 0.415 0.667 0.967 0.892 1.654s0.336 1.524 0.336 2.507-0.168 1.868-0.504 2.655c-0.325 0.776-0.774 1.371-1.346 1.786-1.11 0.808-2.451 1.212-4.020 1.212-0.549 0-1.127-0.021-1.733-0.065h-0.841v-11.453h1.345zM1.396 20.481c0.235 0.022 0.532 0.033 0.891 0.033s0.628-0.005 0.808-0.016c0.179-0.011 0.426-0.054 0.74-0.131 0.335-0.093 0.625-0.21 0.899-0.356l-0.024 0.012c0.269-0.142 0.549-0.349 0.841-0.622 0.302-0.286 0.559-0.615 0.763-0.979l0.011-0.021c0.483-0.896 0.724-2.065 0.724-3.506 0-1.027-0.129-1.912-0.387-2.655-0.259-0.754-0.556-1.311-0.892-1.671-0.327-0.359-0.725-0.647-1.172-0.843l-0.022-0.009c-0.471-0.218-0.847-0.344-1.127-0.377s-0.606-0.050-0.976-0.050c-0.37 0-0.728 0.016-1.076 0.049v11.142zM45.271 20.611h-0.218v-11.469h0.572l6.997 10.601v-10.601h0.219v11.469h-1.228l-6.342-9.503v9.503zM63.199 9.142h0.219v6.554c0 1.715-0.348 2.977-1.043 3.785-0.696 0.797-1.604 1.196-2.725 1.196-0.706 0-1.306-0.060-1.8-0.18-0.536-0.149-1.002-0.391-1.404-0.711l0.008 0.006c-0.898-0.677-1.346-2.043-1.346-4.096v-6.554h1.396v6.538c0 1.988 0.308 3.316 0.926 3.982 0.313 0.328 0.639 0.552 0.975 0.671 0.347 0.12 0.763 0.18 1.245 0.18 1.077 0 1.934-0.382 2.574-1.147 0.651-0.776 0.976-2.005 0.976-3.687v-6.538zM69.156 20.611h-1.396v-11.306h-2.911v-0.163h7.233v0.163h-2.927v11.306z"></path>
</symbol>
<symbol id="icon-program" viewBox="0 0 23 32">
<path d="M0 7.349c0 2.423 1.769 4.434 4.080 4.823v7.422c0 0 0 0 0 0 0 0.451 0.365 0.816 0.816 0.816 0.001 0 0.002 0 0.002 0h13.063c0.451 0 0.816-0.365 0.816-0.816v0-7.422c2.328-0.406 4.076-2.41 4.080-4.822v-0c-0.003-2.704-2.194-4.896-4.898-4.898h-1.847c-1.044-1.488-2.751-2.449-4.683-2.45h-0c-1.936 0-3.65 0.971-4.683 2.448h-1.847c-2.706 0.003-4.898 2.197-4.898 4.903v0zM5.714 17.961h11.429v0.816h-11.429v-0.816zM4.898 4.082h1.056c-0.16 0.53-0.24 1.079-0.24 1.632 0 0.451 0.365 0.816 0.816 0.816s0.816-0.365 0.816-0.816v0c0-2.251 1.831-4.082 4.082-4.082s4.082 1.831 4.082 4.082c0 0.451 0.365 0.816 0.816 0.816s0.816-0.365 0.816-0.816v0c0-0.567-0.085-1.113-0.24-1.632h1.056c1.8 0.007 3.256 1.468 3.256 3.269 0 0.898-0.362 1.711-0.948 2.302l0-0c-0.589 0.59-1.402 0.957-2.301 0.96h-0.005c-0.001 0-0.003 0-0.005 0-0.449 0-0.814 0.364-0.814 0.814 0 0.001 0 0.002 0 0.002v-0 4.901h-11.429v-4.901c0-0.001 0-0.001 0-0.002 0-0.451-0.365-0.816-0.816-0.816 0 0 0 0 0 0h-0.007c-1.728-0.096-3.094-1.52-3.094-3.264 0-1.745 1.368-3.171 3.090-3.264l0.008-0zM20.407 23.675h-17.957c-0.451 0-0.816 0.365-0.816 0.816s0.365 0.816 0.816 0.816v0h17.957c0.451 0 0.816-0.365 0.816-0.816s-0.365-0.816-0.816-0.816v0zM20.407 26.123h-17.957c-0.451 0-0.817 0.366-0.817 0.817s0.366 0.817 0.817 0.817v0h17.957c0.451 0 0.817-0.366 0.817-0.817s-0.366-0.817-0.817-0.817v0zM16.325 28.594h-9.792c-0.451 0-0.817 0.366-0.817 0.817s0.366 0.817 0.817 0.817v0h9.792c0.451 0 0.817-0.366 0.817-0.817s-0.366-0.817-0.817-0.817v0z"></path>
</symbol>
<symbol id="icon-dotted-round" viewBox="0 0 32 32">
<path fill="#fff" style="fill: var(--color1, #fff)" d="M30.545 16c0 8.033-6.512 14.545-14.545 14.545s-14.545-6.512-14.545-14.545c0-8.033 6.512-14.545 14.545-14.545s14.545 6.512 14.545 14.545z"></path>
<path fill="none" stroke="#f3848c" style="stroke: var(--color2, #f3848c)" stroke-linejoin="miter" stroke-linecap="round" stroke-miterlimit="4" stroke-width="0.7273" d="M30.182 16c0 7.832-6.349 14.182-14.182 14.182s-14.182-6.349-14.182-14.182c0-7.832 6.349-14.182 14.182-14.182s14.182 6.349 14.182 14.182z"></path>
</symbol>
<symbol id="icon-solid-round" viewBox="0 0 32 32">
<path fill="#fff" style="fill: var(--color1, #fff); stroke: var(--color2, #f3848c)" stroke="#f3848c" stroke-linejoin="miter" stroke-linecap="butt" stroke-miterlimit="4" stroke-width="1.3333" d="M31.333 16c0 8.468-6.865 15.333-15.333 15.333s-15.333-6.865-15.333-15.333c0-8.468 6.865-15.333 15.333-15.333s15.333 6.865 15.333 15.333z"></path>
</symbol>
<symbol id="icon-instagram" viewBox="0 0 32 32">
<path d="M16.316 32h-0.32c-0.137 0.001-0.299 0.001-0.461 0.001-2.329 0-4.64-0.072-6.933-0.212l0.314 0.015c-2.066-0.126-3.952-0.84-5.454-2.064-1.45-1.182-2.44-2.78-2.942-4.75-0.44-1.716-0.46-3.4-0.484-5.026-0.016-1.17-0.032-2.554-0.036-3.96 0.004-1.414 0.020-2.8 0.036-3.968 0.022-1.628 0.046-3.31 0.484-5.026 0.5-1.97 1.492-3.568 2.94-4.75 1.506-1.224 3.392-1.94 5.46-2.064 2.252-0.138 4.57-0.2 7.084-0.196 0.132-0.001 0.288-0.001 0.443-0.001 2.335 0 4.653 0.071 6.952 0.212l-0.316-0.015c2.066 0.124 3.952 0.84 5.454 2.064 1.45 1.182 2.44 2.78 2.944 4.75 0.436 1.716 0.46 3.4 0.48 5.026 0.018 1.17 0.034 2.554 0.038 3.96v0.006c-0.004 1.408-0.020 2.792-0.036 3.96-0.022 1.63-0.046 3.312-0.482 5.028-0.504 1.97-1.494 3.568-2.944 4.75-1.502 1.224-3.388 1.94-5.454 2.064-1.968 0.125-4.268 0.196-6.585 0.196-0.064 0-0.129-0-0.193-0h0.010zM15.996 29.5c0.143 0.001 0.312 0.001 0.48 0.001 2.271 0 4.526-0.069 6.763-0.206l-0.307 0.015c1.56-0.096 2.916-0.602 4.026-1.508 1.026-0.836 1.734-1.99 2.1-3.43 0.364-1.428 0.386-2.96 0.406-4.444 0.016-1.16 0.032-2.534 0.036-3.928-0.004-1.394-0.020-2.768-0.036-3.93-0.020-1.48-0.040-3.014-0.406-4.44-0.368-1.44-1.074-2.596-2.1-3.432-1.11-0.906-2.464-1.412-4.026-1.508-1.93-0.122-4.186-0.191-6.457-0.191-0.167 0-0.333 0-0.5 0.001l0.026-0c-0.144-0.001-0.314-0.001-0.485-0.001-2.269 0-4.522 0.069-6.756 0.206l0.307-0.015c-1.56 0.096-2.916 0.602-4.026 1.508-1.026 0.836-1.734 1.99-2.1 3.43-0.364 1.428-0.386 2.96-0.406 4.442-0.016 1.162-0.032 2.538-0.036 3.932 0.004 1.39 0.020 2.766 0.036 3.926 0.020 1.484 0.040 3.016 0.406 4.444 0.366 1.44 1.074 2.594 2.1 3.43 1.11 0.906 2.464 1.412 4.026 1.508 2.2 0.134 4.468 0.196 6.928 0.19zM15.936 23.812c-4.312-0.006-7.805-3.5-7.81-7.812v-0c0.005-4.313 3.501-7.809 7.814-7.812h0c4.312 0.006 7.805 3.5 7.81 7.812v0c-0.005 4.313-3.499 7.807-7.812 7.812h-0zM15.936 10.688c-2.931 0.006-5.305 2.381-5.31 5.312v0c0.005 2.933 2.381 5.309 5.314 5.312h0c2.931-0.006 5.305-2.381 5.31-5.312v-0c-0.005-2.932-2.38-5.307-5.312-5.312h-0zM24.626 5.688c-0.018-0.001-0.040-0.001-0.061-0.001-1.036 0-1.876 0.84-1.876 1.876s0.84 1.876 1.876 1.876c0.022 0 0.043-0 0.064-0.001l-0.003 0c1.009-0.034 1.815-0.86 1.815-1.875s-0.805-1.841-1.812-1.875l-0.003-0z"></path>
</symbol>
</defs>
</svg>
