<svg aria-hidden="true" style="position: absolute; width: 0; height: 0; overflow: hidden;" version="1.1" xmlns="http://www.w3.org/2000/svg" xmlns:xlink="http://www.w3.org/1999/xlink">
<defs>
<symbol id="icon-facebook" viewBox="0 0 16 32">
<path d="M14.512 0.006l-3.616-0.006c-4.064 0-6.69 3.092-6.69 7.876v3.63h-3.638c-0.314 0-0.568 0.294-0.568 0.654v5.26c0 0.36 0.254 0.652 0.568 0.652h3.638v13.276c0 0.36 0.254 0.652 0.568 0.652h4.746c0.314 0 0.568-0.292 0.568-0.652v-13.276h4.252c0.314 0 0.568-0.292 0.568-0.652l0.002-5.26c0-0.174-0.060-0.34-0.166-0.462-0.097-0.116-0.241-0.189-0.402-0.192h-4.254v-3.078c0-1.48 0.308-2.23 1.988-2.23h2.436c0.314 0 0.568-0.294 0.568-0.654v-4.884c0-0.36-0.254-0.652-0.568-0.654z"></path>
</symbol>
<symbol id="icon-twitter" viewBox="0 0 34 32">
<path d="M34.133 3.669c-1.17 0.587-2.528 1.021-3.96 1.229l-0.072 0.009c1.451-0.969 2.558-2.492 3.078-4.324-1.269 0.857-2.754 1.511-4.349 1.875l-0.088 0.017c-1.284-1.527-3.115-2.475-5.111-2.475-3.874 0-6.993 3.516-6.993 7.825 0 0.619 0.047 1.216 0.162 1.783-5.818-0.318-10.965-3.435-14.423-8.183-0.604 1.145-0.958 2.503-0.958 3.944 0 0.004 0 0.008 0 0.012v-0.001c0 2.709 1.248 5.109 3.108 6.5-1.177-0.040-2.263-0.394-3.188-0.98l0.026 0.015v0.085c0 3.804 2.426 6.961 5.606 7.689-0.57 0.173-1.19 0.256-1.835 0.256-0.448 0-0.9-0.028-1.325-0.132 0.907 3.098 3.479 5.376 6.539 5.449-2.381 2.082-5.404 3.337-8.676 3.337-0.574 0-1.124-0.030-1.675-0.107 3.1 2.234 6.773 3.509 10.735 3.509 12.877 0 19.917-11.925 19.917-22.259 0-0.346-0.011-0.681-0.026-1.011 1.395-1.13 2.563-2.475 3.469-3.993l0.038-0.068z"></path>
</symbol>
<symbol id="icon-logo" viewBox="0 0 72 32">
<path d="M42.83 15.743c0 0.257-0.008 0.513 0 0.77 0.091 2.611-0.746 4.963-2.087 7.181-0.37 0.589-0.791 1.334-1.183 2.096l-0.084 0.18c-0.32 0.639-0.764 1.087-1.455 1.348-0.386 0.146-0.743 0.398-1.067 0.658-1.489 1.199-3.178 2.058-4.985 2.662-1.2 0.402-2.435 0.756-3.739 0.739-0.389-0.004-0.778 0.112-1.168 0.113s-0.779-0.122-1.164-0.106c-1.682 0.070-3.239-0.434-4.785-0.963-1.688-0.577-3.178-1.489-4.579-2.576-1.979-1.533-3.388-3.464-4.424-5.674-0.558-1.192-1.013-2.421-1.142-3.743-0.022-0.219-0.096-0.436-0.162-0.65-0.47-1.483-0.2-2.937 0.091-4.415 0.223-1.13 0.451-2.247 0.885-3.319 1.145-2.838 2.964-5.162 5.483-6.988 2.1-1.52 4.451-2.455 7.006-2.856 2.934-0.461 5.796-0.129 8.574 0.947 1.386 0.539 2.693 1.221 3.836 2.126 1.066 0.842 2.026 1.829 2.934 2.836 0.822 0.914 1.407 2.002 1.928 3.112 0.814 1.734 1.345 3.53 1.292 5.458-0.012 0.357-0.003 0.71-0.004 1.063zM41.705 12.23c-0.082-0.606-0.132-1.309-0.284-1.99-0.433-1.961-1.597-3.491-3.149-4.741-0.881-0.711-1.842-1.328-2.788-1.956-0.321-0.213-0.693-0.409-1.068-0.474-0.963-0.173-1.936-0.334-2.911-0.383-1.694-0.084-3.215-0.511-4.493-1.659-0.941-0.844-1.966-0.926-2.943-0.182-1.108 0.842-2.37 1.336-3.656 1.825-0.942 0.359-1.85 0.81-2.756 1.256-0.757 0.374-1.198 0.956-1.187 1.838 0.007 0.494-0.227 0.908-0.697 1.182-0.392 0.229-0.768 0.483-1.127 0.761-1.002 0.769-1.783 1.635-1.952 2.979-0.133 1.063-0.463 2.114-1.211 2.989-0.24 0.287-0.4 0.647-0.444 1.043l-0.001 0.009c-0.069 0.795-0.041 1.599-0.020 2.399 0.005 0.214 0.101 0.443 0.213 0.631 0.258 0.445 0.539 0.877 0.842 1.294 0.733 0.994 1.371 2.013 1.518 3.277 0.143 1.224 0.749 2.221 1.776 2.982 1.486 1.103 2.917 2.274 4.426 3.348 0.81 0.579 1.678 1.085 2.747 1.202s2.117 0.401 3.076 0.926c0.201 0.106 0.421 0.172 0.648 0.193 1.353 0.143 2.604-0.184 3.792-0.801 0.372-0.193 0.756-0.369 1.141-0.537 0.928-0.405 1.957-0.671 2.766-1.235 0.899-0.629 1.861-0.908 2.894-1.084 0.445-0.076 0.81-0.255 1.1-0.579 0.347-0.383 0.667-0.79 1.028-1.16 0.373-0.383 0.643-0.79 0.708-1.334 0.1-0.835 0.467-1.573 0.933-2.282 0.787-1.198 1.235-2.522 1.468-3.928 0.061-0.37 0.096-0.682-0.091-1.007-0.543-0.938-0.321-2.002-0.493-3.001-0.086-0.539 0.114-1.13 0.197-1.802l-0.002 0.001zM35.178 2.863c-0.229-0.246-0.302-0.358-0.405-0.428-0.187-0.126-0.392-0.229-0.59-0.338-1.702-0.935-3.566-1.389-5.471-1.716-0.383-0.066-0.785-0.036-1.175-0.022-0.102 0.003-0.223 0.1-0.287 0.187-0.030 0.039 0.037 0.178 0.093 0.244 0.421 0.485 0.96 0.855 1.574 1.067l0.026 0.008c1.075 0.378 2.206 0.585 3.348 0.613 0.484 0.014 0.967 0.103 1.449 0.167 0.411 0.057 0.821 0.125 1.44 0.219zM20.716 29.804c-1.142-0.91-2.145-1.724-3.163-2.516-0.565-0.445-1.401-1.076-2.245-1.694l-0.323-0.226c-0.097-0.072-0.25-0.069-0.462-0.123 1.039 1.701 4.509 4.285 6.193 4.559zM13.018 8.561c0.689-0.513 1.326-1.053 2.026-1.5 0.981-0.624 1.357-1.398 1.125-2.729-0.696 0.555-1.193 1.223-1.729 1.832-0.568 0.64-0.988 1.403-1.461 2.121-0.037 0.058 0.022 0.172 0.040 0.276zM36.255 27.969c-0.643-0.043-1.29 0.067-1.693 0.406-0.765 0.641-1.675 0.964-2.601 1.285-0.487 0.168-0.945 0.415-1.403 0.651-0.063 0.033-0.075 0.206-0.062 0.308 0.004 0.035 0.176 0.091 0.246 0.068 0.831-0.276 1.691-0.499 2.478-0.869 0.965-0.451 1.872-1.023 2.796-1.554 0.097-0.052 0.148-0.178 0.238-0.294zM11.7 19.074c-0.184 0.531-0.148 0.825-0.032 1.138 0.322 0.868 0.517 1.785 1.099 2.544 0.215 0.281 0.259 0.911 0.656 0.775 0.35-0.118-0.059-0.616-0.083-0.953-0.092-1.283-0.784-2.318-1.64-3.504zM17.934 3.092l0.086 0.127c0.48-0.174 0.965-0.338 1.44-0.524 1.034-0.404 2.063-0.815 3.090-1.234 0.208-0.086 0.397-0.222 0.574-0.361 0.049-0.039 0.041-0.172 0.025-0.253-0.008-0.037-0.106-0.077-0.162-0.079-0.102 0.002-0.199 0.019-0.291 0.048l0.007-0.002c-1.396 0.386-2.712 0.959-3.972 1.653-0.294 0.162-0.534 0.415-0.797 0.626zM42.448 16.875c0.084-0.095 0.15-0.135 0.155-0.18 0.136-1.398-0.016-2.783-0.212-4.165-0.010-0.069-0.109-0.169-0.176-0.177-0.074-0.010-0.19 0.050-0.235 0.115-0.071 0.097-0.118 0.215-0.133 0.342l-0 0.003c-0.017 0.251-0.027 0.544-0.027 0.839 0 0.908 0.093 1.794 0.271 2.65l-0.015-0.084c0.044 0.226 0.236 0.426 0.372 0.657zM11.363 13.017c0.545-0.202 0.626-0.569 0.684-0.9 0.143-0.807 0.498-1.584 0.381-2.437-0.57 1.019-1.075 2.051-1.066 3.338zM24.545 30.739c-1.221-0.527-1.552-0.582-2.639-0.434 0.461 0.17 0.876 0.441 1.292 0.445 0.435 0.007 0.906 0.526 1.347-0.010z"></path>
<path d="M27.064 20.267c-0.835-0.015-1.409-0.355-1.834-1.014-0.395-0.613-1.053-0.933-1.657-1.311-0.76-0.477-1.377-1.014-1.553-1.98-0.122-0.655 0.020-1.223 0.293-1.741 0.229-0.432 0.637-0.834 1.066-1.091 0.466-0.279 0.851-0.542 1.066-1.057 0.243-0.592 0.856-0.628 1.398-0.735 0.511-0.1 1.031-0.165 1.535-0.29 0.689-0.172 1.314-0.118 1.818 0.404 0.388 0.406 0.843 0.697 1.349 0.944 0.527 0.255 0.701 0.554 0.536 1.089-0.112 0.362-0.003 0.609 0.135 0.899 0.152 0.317 0.308 0.637 0.412 0.971 0.347 1.11-0.052 2.045-1.121 2.539-0.662 0.306-1.169 0.715-1.334 1.433-0.065 0.289-0.251 0.453-0.513 0.528-0.528 0.151-1.065 0.275-1.597 0.411zM30.568 15.613c0.017-1.955-1.503-3.519-3.48-3.521-1.774 0-3.559 1.17-3.629 3.413-0.055 1.795 1.479 3.468 3.478 3.474 2.435 0.012 3.584-1.637 3.631-3.366zM23.44 17.482c0-0.251 0.024-0.379-0.003-0.494-0.263-1.062-0.433-2.115 0.162-3.138 0.043-0.073-0.056-0.225-0.089-0.34-0.117 0.037-0.258 0.045-0.347 0.116-0.982 0.786-1.421 2.674 0.277 3.857zM27.089 11.6c0.412 0.147 0.647 0.251 0.892 0.316 0.906 0.234 1.679 0.654 2.217 1.428 0.106 0.152 0.243 0.379 0.445 0.205 0.108-0.093 0.143-0.376 0.082-0.517-0.084-0.189-0.274-0.424-0.458-0.461-0.498-0.101-0.77-0.453-1.095-0.759-0.545-0.511-1.155-0.671-2.083-0.212zM27.034 19.298l-0.012-0.074c-0.261 0-0.524-0.022-0.782 0.009-0.132 0.016-0.252 0.125-0.377 0.193 0.114 0.098 0.213 0.253 0.345 0.285 0.701 0.173 1.409 0.21 2.102-0.054 0.118-0.045 0.25-0.104 0.324-0.197 0.065-0.078 0.087-0.219 0.074-0.325-0.005-0.040-0.169-0.099-0.25-0.086-0.475 0.072-0.948 0.163-1.421 0.25l-0.002 0.001zM30.623 17.292c0.487-0.088 0.704-0.355 0.732-0.766 0.021-0.347 0.016-0.694-0.015-1.040-0.008-0.091-0.138-0.172-0.212-0.259-0.109 0.1-0.328 0.234-0.308 0.295 0.197 0.599-0.215 1.136-0.196 1.769v0.001zM35.073 20c-0.029 0.014-0.141 0.106-0.263 0.118-0.111 0.013-0.273-0.023-0.342-0.099-0.329-0.357-0.653-0.741-0.96-1.139l-0.030-0.040c-0.082-0.107-0.114-0.395-0.068-0.42 0.152-0.082 0.449-0.167 0.515-0.096 0.392 0.42 0.735 0.882 1.089 1.336 0.034 0.046 0.024 0.123 0.060 0.34zM18.516 23.293c0.18 0.014 0.538 0.024 0.885 0.082 0.087 0.015 0.203 0.18 0.203 0.279s-0.1 0.269-0.187 0.29c-0.677 0.163-1.35 0.204-1.949-0.237-0.059-0.054-0.096-0.132-0.096-0.218 0-0.009 0-0.017 0.001-0.026l-0 0.001c0.013-0.066 0.118-0.159 0.189-0.163 0.259-0.020 0.52-0.009 0.955-0.009zM39.724 9.411l0.257 0.136c-0.073 0.127-0.117 0.331-0.223 0.368-0.487 0.174-0.987 0.313-1.496 0.415-0.146 0.029-0.359-0.112-0.494-0.227-0.156-0.133-0.063-0.424 0.133-0.453 0.577-0.086 1.157-0.153 1.823-0.238zM22.497 26.119c0.27 0.123 0.497 0.158 0.608 0.289 0.303 0.366 0.58 0.752 0.829 1.155 0.122 0.192 0.011 0.4-0.194 0.455-0.112 0.030-0.316-0.059-0.398-0.158-0.309-0.361-0.611-0.758-0.888-1.172l-0.029-0.046c-0.065-0.101 0.036-0.303 0.072-0.524zM33.119 10.843c0.017-0.112 0-0.24 0.054-0.29 0.073-0.065 0.229-0.118 0.304-0.083 0.102 0.048 0.169 0.179 0.239 0.282 0.196 0.286 0.391 0.575 0.577 0.868 0.084 0.132 0.196 0.272 0.203 0.414 0.008 0.131-0.074 0.301-0.176 0.391-0.056 0.050-0.288 0.018-0.345-0.052-0.374-0.464-0.824-0.899-0.857-1.53zM34.284 5.915c-0.082 0.474-0.114 0.822-0.208 1.157-0.063 0.186-0.175 0.342-0.322 0.456l-0.002 0.002c-0.108 0.084-0.295 0.072-0.446 0.103-0.012-0.138-0.056-0.281-0.031-0.412 0.079-0.404 0.185-0.802 0.279-1.202 0.008-0.031 0.006-0.065 0.015-0.095 0.075-0.241 0.236-0.426 0.494-0.325 0.13 0.050 0.191 0.272 0.221 0.318zM27.296 8.995c0.228 0.027 0.523 0.043 0.803 0.109 0.097 0.022 0.238 0.191 0.222 0.264-0.029 0.129-0.14 0.3-0.257 0.339-0.087 0.027-0.186 0.043-0.29 0.043-0.1 0-0.197-0.015-0.288-0.042l0.007 0.002c-0.325-0.101-0.626-0.134-0.95-0.002-0.212 0.086-0.412-0.005-0.468-0.211-0.076-0.276 0.138-0.41 0.377-0.449 0.255-0.041 0.52-0.035 0.844-0.053zM32.351 22.606c-0.092 0.392-0.162 0.736-0.261 1.072-0.020 0.066-0.162 0.155-0.222 0.14-0.108-0.026-0.259-0.109-0.281-0.195-0.026-0.096-0.041-0.206-0.041-0.319 0-0.088 0.009-0.174 0.026-0.257l-0.001 0.008c0.076-0.345 0.151-0.671 0.008-1.023-0.068-0.168-0.049-0.437 0.214-0.436 0.142 0 0.345 0.17 0.408 0.311 0.103 0.225 0.11 0.491 0.15 0.699zM28.364 22.505c-0.053 0.092-0.078 0.201-0.148 0.247-0.427 0.287-0.854 0.575-1.303 0.825-0.115 0.064-0.317 0.024-0.463-0.018-0.214-0.062-0.259-0.337-0.081-0.448 0.492-0.306 0.985-0.611 1.491-0.894 0.082-0.045 0.244 0.004 0.349 0.054 0.071 0.034 0.101 0.146 0.155 0.233zM22.926 4.089c0.069 0.040 0.2 0.075 0.217 0.136 0.17 0.609 0.333 1.219 0.467 1.835 0.037 0.171-0.195 0.266-0.351 0.164-0.49-0.321-0.795-1.511-0.509-2.009 0.029-0.050 0.102-0.075 0.176-0.126zM28.981 5.817c-0.148-0.095-0.306-0.145-0.328-0.227-0.023-0.091 0.053-0.244 0.136-0.316 0.335-0.294 0.702-0.583 1.083-0.854l0.043-0.029c0.131-0.090 0.405-0.154 0.507-0.084 0.239 0.164 0.114 0.395-0.053 0.564-0.224 0.228-0.446 0.468-0.703 0.652-0.197 0.138-0.451 0.197-0.684 0.294zM19.664 9.031l-0.358 0.33c-0.102-0.108-0.253-0.197-0.296-0.327-0.124-0.34-0.279-0.851-0.416-1.368l-0.037-0.162c-0.018-0.071 0.041-0.215 0.102-0.24 0.099-0.040 0.262-0.055 0.337 0 0.149 0.107 0.319 0.251 0.368 0.411 0.127 0.418 0.195 0.856 0.3 1.355zM15.741 17.475c-0.328 0.587-0.578 1.188-1.19 1.508-0.102 0.054-0.33-0.015-0.441-0.101-0.187-0.144 0-0.266 0.091-0.388 0.287-0.386 0.553-0.788 0.858-1.158 0.078-0.095 0.278-0.142 0.414-0.129 0.093 0.008 0.168 0.161 0.268 0.268zM19.455 17.525c0.172 0.097 0.296 0.125 0.319 0.189 0.038 0.104 0.058 0.268 0 0.34-0.094 0.115-0.255 0.181-0.394 0.259-0.36 0.201-0.714 0.413-1.087 0.584-0.114 0.052-0.32 0.036-0.422-0.034-0.208-0.145-0.135-0.377 0.033-0.479 0.513-0.313 1.053-0.587 1.552-0.859zM38.036 14.866c-0.132 0.291-0.318 0.729-0.538 1.149-0.034 0.065-0.247 0.101-0.338 0.061-0.084-0.037-0.176-0.202-0.159-0.291 0.089-0.468 0.187-0.937 0.335-1.389 0.046-0.138 0.251-0.263 0.408-0.308 0.058-0.017 0.211 0.197 0.283 0.328 0.042 0.074 0.008 0.187 0.008 0.449zM15.639 11.378c0.581 0.509 0.512 1.199 0.577 1.836 0.012 0.118-0.14 0.288-0.26 0.374-0.063 0.045-0.32-0.027-0.327-0.068-0.073-0.468-0.15-1.134-0.208-1.806l-0.009-0.135c-0.005-0.054 0.132-0.123 0.227-0.202zM29.229 27.123c0.097 0.025 0.193 0.056 0.287 0.092 0.349 0.157 0.701 0.311 1.042 0.485 0.162 0.082 0.324 0.185 0.441 0.316 0.134 0.152-0.019 0.444-0.207 0.404-0.634-0.133-1.253-0.32-1.727-0.782-0.070-0.068-0.068-0.239-0.046-0.353 0.014-0.064 0.136-0.108 0.21-0.162zM21.515 11.564c0.034 0.102 0.15 0.261 0.109 0.361-0.278 0.675-0.516 1.185-0.772 1.686l0.062-0.133c-0.031 0.063-0.162 0.118-0.24 0.109-0.068-0.009-0.162-0.102-0.18-0.172-0.133-0.57 0.286-1.59 0.754-1.846 0.048-0.026 0.125-0.003 0.268-0.003zM39.64 20.214c-0.073-0.046-0.225-0.1-0.304-0.206-0.032-0.042 0.070-0.235 0.158-0.297 0.337-0.246 0.73-0.502 1.135-0.739l0.068-0.037c0.112-0.063 0.344-0.068 0.427 0.003 0.076 0.066 0.087 0.315 0.018 0.407-0.347 0.472-0.786 0.832-1.503 0.869zM37.232 24.279c-0.301-0.031-0.432-0.034-0.557-0.061-0.053-0.012-0.132-0.072-0.133-0.112-0.001-0.008-0.001-0.017-0.001-0.026 0-0.085 0.026-0.164 0.070-0.23l-0.001 0.002c0.064-0.070 0.147-0.122 0.24-0.148l0.004-0.001c0.463-0.136 0.927-0.272 1.398-0.381 0.102-0.024 0.317 0.041 0.331 0.098 0.031 0.136-0.006 0.298-0.061 0.434-0.029 0.072-0.143 0.132-0.231 0.158-0.402 0.108-0.807 0.204-1.059 0.267zM23.271 21.016c-0.034 0.138-0.088 0.443-0.192 0.731-0.026 0.072-0.228 0.14-0.321 0.114s-0.203-0.176-0.2-0.269c0.010-0.533 0.037-1.066 0.093-1.597 0.012-0.116 0.162-0.218 0.248-0.325 0.104 0.107 0.272 0.202 0.298 0.324 0.059 0.275 0.046 0.564 0.074 1.022zM44.998 4.352c0-1.128 0.281-1.983 0.84-2.566 0.566-0.589 1.292-0.883 2.177-0.883s1.588 0.254 2.109 0.763c0.528 0.508 0.792 1.32 0.792 2.436s-0.281 1.959-0.84 2.529c-0.56 0.571-1.307 0.856-2.243 0.856-0.808 0-1.47-0.227-1.985-0.679-0.267-0.236-0.477-0.561-0.63-0.976-0.146-0.422-0.22-0.914-0.22-1.479zM47.986 0.995c-0.643 0-1.171 0.279-1.585 0.837-0.407 0.558-0.611 1.375-0.611 2.454s0.194 1.866 0.582 2.362c0.388 0.496 0.904 0.744 1.546 0.744 0.65 0 1.178-0.279 1.585-0.837 0.413-0.564 0.62-1.379 0.62-2.446 0-1.072-0.197-1.859-0.592-2.361-0.388-0.502-0.903-0.754-1.546-0.754zM52.568 7.449h-0.792v-6.509h0.792v2.994h3.102v-2.994h0.792v6.509h-0.792v-3.422h-3.101v3.422zM60.534 7.449h-0.124l0.831-6.509h0.315l2.004 6.016 1.995-6.016h0.315l0.831 6.509h-0.793l-0.659-5.207-1.727 5.207h-0.602l-1.747-5.142-0.64 5.142zM71.989 0.94c0.112 0.111 0.181 0.264 0.181 0.434 0 0.008-0 0.016-0 0.023l0-0.001c0 0.155-0.035 0.313-0.105 0.474l-1.709 3.375v2.204h-0.792v-1.999l-1.91-4.51h0.812l1.823 4.194 1.661-3.264c0.066-0.142 0.105-0.308 0.105-0.483v-0c0-0.167-0.048-0.298-0.144-0.391l0.077-0.056zM1.345 9.159c0.431-0.021 0.937-0.032 1.446-0.033h0.001c0.482 0 0.987 0.049 1.514 0.147 0.538 0.099 1.065 0.284 1.581 0.558 0.527 0.261 0.97 0.606 1.329 1.032 0.37 0.415 0.667 0.967 0.892 1.654s0.336 1.524 0.336 2.507-0.168 1.868-0.504 2.655c-0.325 0.776-0.774 1.371-1.346 1.786-1.11 0.808-2.451 1.212-4.020 1.212-0.549 0-1.127-0.021-1.733-0.065h-0.841v-11.453h1.345zM1.396 20.481c0.235 0.022 0.532 0.033 0.891 0.033s0.628-0.005 0.808-0.016c0.179-0.011 0.426-0.054 0.74-0.131 0.335-0.093 0.625-0.21 0.899-0.356l-0.024 0.012c0.269-0.142 0.549-0.349 0.841-0.622 0.302-0.286 0.559-0.615 0.763-0.979l0.011-0.021c0.483-0.896 0.724-2.065 0.724-3.506 0-1.027-0.129-1.912-0.387-2.655-0.259-0.754-0.556-1.311-0.892-1.671-0.327-0.359-0.725-0.647-1.172-0.843l-0.022-0.009c-0.471-0.218-0.847-0.344-1.127-0.377s-0.606-0.050-0.976-0.050c-0.37 0-0.728 0.016-1.076 0.049v11.142zM45.271 20.611h-0.218v-11.469h0.572l6.997 10.601v-10.601h0.219v11.469h-1.228l-6.342-9.503v9.503zM63.199 9.142h0.219v6.554c0 1.715-0.348 2.977-1.043 3.785-0.696 0.797-1.604 1.196-2.725 1.196-0.706 0-1.306-0.060-1.8-0.18-0.536-0.149-1.002-0.391-1.404-0.711l0.008 0.006c-0.898-0.677-1.346-2.043-1.346-4.096v-6.554h1.396v6.538c0 1.988 0.308 3.316 0.926 3.982 0.313 0.328 0.639 0.552 0.975 0.671 0.347 0.12 0.763 0.18 1.245 0.18 1.077 0 1.934-0.382 2.574-1.147 0.651-0.776 0.976-2.005 0.976-3.687v-6.538zM69.156 20.611h-1.396v-11.306h-2.911v-0.163h7.233v0.163h-2.927v11.306z"></path>
</symbol>
<symbol id="icon-program" viewBox="0 0 23 32">
<path d="M0 7.349c0 2.423 1.769 4.434 4.080 4.823v7.422c0 0 0 0 0 0 0 0.451 0.365 0.816 0.816 0.816 0.001 0 0.002 0 0.002 0h13.063c0.451 0 0.816-0.365 0.816-0.816v0-7.422c2.328-0.406 4.076-2.41 4.080-4.822v-0c-0.003-2.704-2.194-4.896-4.898-4.898h-1.847c-1.044-1.488-2.751-2.449-4.683-2.45h-0c-1.936 0-3.65 0.971-4.683 2.448h-1.847c-2.706 0.003-4.898 2.197-4.898 4.903v0zM5.714 17.961h11.429v0.816h-11.429v-0.816zM4.898 4.082h1.056c-0.16 0.53-0.24 1.079-0.24 1.632 0 0.451 0.365 0.816 0.816 0.816s0.816-0.365 0.816-0.816v0c0-2.251 1.831-4.082 4.082-4.082s4.082 1.831 4.082 4.082c0 0.451 0.365 0.816 0.816 0.816s0.816-0.365 0.816-0.816v0c0-0.567-0.085-1.113-0.24-1.632h1.056c1.8 0.007 3.256 1.468 3.256 3.269 0 0.898-0.362 1.711-0.948 2.302l0-0c-0.589 0.59-1.402 0.957-2.301 0.96h-0.005c-0.001 0-0.003 0-0.005 0-0.449 0-0.814 0.364-0.814 0.814 0 0.001 0 0.002 0 0.002v-0 4.901h-11.429v-4.901c0-0.001 0-0.001 0-0.002 0-0.451-0.365-0.816-0.816-0.816 0 0 0 0 0 0h-0.007c-1.728-0.096-3.094-1.52-3.094-3.264 0-1.745 1.368-3.171 3.090-3.264l0.008-0zM20.407 23.675h-17.957c-0.451 0-0.816 0.365-0.816 0.816s0.365 0.816 0.816 0.816v0h17.957c0.451 0 0.816-0.365 0.816-0.816s-0.365-0.816-0.816-0.816v0zM20.407 26.123h-17.957c-0.451 0-0.817 0.366-0.817 0.817s0.366 0.817 0.817 0.817v0h17.957c0.451 0 0.817-0.366 0.817-0.817s-0.366-0.817-0.817-0.817v0zM16.325 28.594h-9.792c-0.451 0-0.817 0.366-0.817 0.817s0.366 0.817 0.817 0.817v0h9.792c0.451 0 0.817-0.366 0.817-0.817s-0.366-0.817-0.817-0.817v0z"></path>
</symbol>
<symbol id="icon-dotted-round" viewBox="0 0 32 32">
<path fill="#fff" style="fill: var(--color1, #fff)" d="M30.545 16c0 8.033-6.512 14.545-14.545 14.545s-14.545-6.512-14.545-14.545c0-8.033 6.512-14.545 14.545-14.545s14.545 6.512 14.545 14.545z"></path>
<path fill="none" stroke="#f3848c" style="stroke: var(--color2, #f3848c)" stroke-linejoin="miter" stroke-linecap="round" stroke-miterlimit="4" stroke-width="0.7273" d="M30.182 16c0 7.832-6.349 14.182-14.182 14.182s-14.182-6.349-14.182-14.182c0-7.832 6.349-14.182 14.182-14.182s14.182 6.349 14.182 14.182z"></path>
</symbol>
<symbol id="icon-solid-round" viewBox="0 0 32 32">
<path fill="#fff" style="fill: var(--color1, #fff); stroke: var(--color2, #f3848c)" stroke="#f3848c" stroke-linejoin="miter" stroke-linecap="butt" stroke-miterlimit="4" stroke-width="1.3333" d="M31.333 16c0 8.468-6.865 15.333-15.333 15.333s-15.333-6.865-15.333-15.333c0-8.468 6.865-15.333 15.333-15.333s15.333 6.865 15.333 15.333z"></path>
</symbol>
<symbol id="icon-instagram" viewBox="0 0 32 32">
<path d="M16.316 32h-0.32c-0.137 0.001-0.299 0.001-0.461 0.001-2.329 0-4.64-0.072-6.933-0.212l0.314 0.015c-2.066-0.126-3.952-0.84-5.454-2.064-1.45-1.182-2.44-2.78-2.942-4.75-0.44-1.716-0.46-3.4-0.484-5.026-0.016-1.17-0.032-2.554-0.036-3.96 0.004-1.414 0.020-2.8 0.036-3.968 0.022-1.628 0.046-3.31 0.484-5.026 0.5-1.97 1.492-3.568 2.94-4.75 1.506-1.224 3.392-1.94 5.46-2.064 2.252-0.138 4.57-0.2 7.084-0.196 0.132-0.001 0.288-0.001 0.443-0.001 2.335 0 4.653 0.071 6.952 0.212l-0.316-0.015c2.066 0.124 3.952 0.84 5.454 2.064 1.45 1.182 2.44 2.78 2.944 4.75 0.436 1.716 0.46 3.4 0.48 5.026 0.018 1.17 0.034 2.554 0.038 3.96v0.006c-0.004 1.408-0.020 2.792-0.036 3.96-0.022 1.63-0.046 3.312-0.482 5.028-0.504 1.97-1.494 3.568-2.944 4.75-1.502 1.224-3.388 1.94-5.454 2.064-1.968 0.125-4.268 0.196-6.585 0.196-0.064 0-0.129-0-0.193-0h0.010zM15.996 29.5c0.143 0.001 0.312 0.001 0.48 0.001 2.271 0 4.526-0.069 6.763-0.206l-0.307 0.015c1.56-0.096 2.916-0.602 4.026-1.508 1.026-0.836 1.734-1.99 2.1-3.43 0.364-1.428 0.386-2.96 0.406-4.444 0.016-1.16 0.032-2.534 0.036-3.928-0.004-1.394-0.020-2.768-0.036-3.93-0.020-1.48-0.040-3.014-0.406-4.44-0.368-1.44-1.074-2.596-2.1-3.432-1.11-0.906-2.464-1.412-4.026-1.508-1.93-0.122-4.186-0.191-6.457-0.191-0.167 0-0.333 0-0.5 0.001l0.026-0c-0.144-0.001-0.314-0.001-0.485-0.001-2.269 0-4.522 0.069-6.756 0.206l0.307-0.015c-1.56 0.096-2.916 0.602-4.026 1.508-1.026 0.836-1.734 1.99-2.1 3.43-0.364 1.428-0.386 2.96-0.406 4.442-0.016 1.162-0.032 2.538-0.036 3.932 0.004 1.39 0.020 2.766 0.036 3.926 0.020 1.484 0.040 3.016 0.406 4.444 0.366 1.44 1.074 2.594 2.1 3.43 1.11 0.906 2.464 1.412 4.026 1.508 2.2 0.134 4.468 0.196 6.928 0.19zM15.936 23.812c-4.312-0.006-7.805-3.5-7.81-7.812v-0c0.005-4.313 3.501-7.809 7.814-7.812h0c4.312 0.006 7.805 3.5 7.81 7.812v0c-0.005 4.313-3.499 7.807-7.812 7.812h-0zM15.936 10.688c-2.931 0.006-5.305 2.381-5.31 5.312v0c0.005 2.933 2.381 5.309 5.314 5.312h0c2.931-0.006 5.305-2.381 5.31-5.312v-0c-0.005-2.932-2.38-5.307-5.312-5.312h-0zM24.626 5.688c-0.018-0.001-0.040-0.001-0.061-0.001-1.036 0-1.876 0.84-1.876 1.876s0.84 1.876 1.876 1.876c0.022 0 0.043-0 0.064-0.001l-0.003 0c1.009-0.034 1.815-0.86 1.815-1.875s-0.805-1.841-1.812-1.875l-0.003-0z"></path>
</symbol>
<symbol id="icon-logo-company" viewBox="0 0 106 46">
<path d="M62.9074 22.9959C62.9074 23.3707 62.8955 23.7456 62.9074 24.1209C63.0396 27.9342 61.8122 31.3697 59.8413 34.6092C59.1806 35.6956 58.549 36.8004 57.9799 37.9352C57.5103 38.8682 56.8579 39.5221 55.843 39.9044C55.2763 40.1172 54.7507 40.4863 54.2757 40.8663C52.0887 42.6175 49.6077 43.8716 46.954 44.755C45.1915 45.3415 43.3766 45.8576 41.4616 45.8345C40.8908 45.8282 40.3187 45.9983 39.7467 46C39.1747 46.0017 38.6032 45.8218 38.0365 45.8454C35.5674 45.9481 33.2799 45.2112 31.009 44.4379C28.5303 43.5949 26.3416 42.2629 24.2826 40.6754C21.3772 38.4363 19.3069 35.616 17.7848 32.3875C16.9645 30.6472 16.2967 28.851 16.108 26.9199C16.0764 26.5993 15.9669 26.2821 15.8699 25.9713C15.1794 23.8049 15.5764 21.6806 16.0038 19.5223C16.3306 17.8714 16.6669 16.2407 17.3032 14.6734C18.9854 10.528 21.6569 7.13343 25.357 4.4671C28.4416 2.2465 31.8941 0.881617 35.6478 0.295185C39.955 -0.377741 44.1599 0.106628 48.2398 1.6791C50.2756 2.4662 52.1964 3.46318 53.8739 4.78309C55.4388 6.01419 56.8501 7.45462 58.1835 8.92675C59.3919 10.2611 60.2496 11.8503 61.0157 13.4717C62.2122 16.0049 62.992 18.6268 62.9128 21.4436C62.8955 21.9643 62.908 22.4804 62.9074 22.9959ZM61.2538 17.8639C61.1348 16.9788 61.0604 15.953 60.8371 14.9577C60.2014 12.0936 58.4912 9.85801 56.212 8.0324C54.9179 6.99447 53.5072 6.09262 52.1167 5.1752C51.6458 4.8644 51.0988 4.57897 50.5488 4.48324C49.135 4.23068 47.7052 3.99484 46.2725 3.92391C43.7855 3.80109 41.5515 3.17891 39.6741 1.50207C38.2919 0.26866 36.7871 0.149297 35.3507 1.23509C33.7227 2.46446 31.8697 3.1864 29.981 3.90085C28.597 4.42443 27.2642 5.08409 25.9332 5.73568C24.8213 6.28117 24.1737 7.1317 24.1891 8.41989C24.1981 9.14241 23.8564 9.74614 23.1665 10.1463C22.5908 10.4821 22.0378 10.8532 21.5111 11.2575C20.039 12.3808 18.892 13.6459 18.6443 15.6093C18.4485 17.1622 17.964 18.6972 16.8663 19.9761C16.4996 20.4162 16.2722 20.9497 16.2115 21.5123C16.1103 22.673 16.152 23.8476 16.1818 25.0153C16.1901 25.3278 16.33 25.6628 16.4949 25.9379C16.874 26.5878 17.2869 27.2186 17.7318 27.8281C18.8092 29.2806 19.7462 30.7689 19.9628 32.6141C20.1724 34.4017 21.0629 35.8582 22.5695 36.97C24.7517 38.5811 26.8553 40.2914 29.0702 41.8604C30.2607 42.7057 31.5352 43.4449 33.1054 43.6162C34.6757 43.7875 36.2151 44.2021 37.6228 44.969C37.918 45.1231 38.2416 45.2194 38.5752 45.2521C40.5616 45.4597 42.4003 44.9828 44.1444 44.0815C44.6915 43.799 45.2546 43.5424 45.8207 43.2967C47.1838 42.7051 48.6952 42.3165 49.8827 41.4925C51.2036 40.5739 52.6161 40.1662 54.1322 39.9096C54.787 39.7983 55.3227 39.5365 55.7489 39.0643C56.2579 38.5038 56.7287 37.911 57.2591 37.3696C57.8073 36.8108 58.2032 36.2163 58.299 35.42C58.446 34.1993 58.9847 33.1215 59.6681 32.0859C60.8252 30.3364 61.483 28.403 61.8253 26.3473C61.9152 25.8082 61.9663 25.352 61.6907 24.8775C60.8943 23.508 61.2193 21.9528 60.9675 20.4951C60.8401 19.7068 61.1336 18.8448 61.2568 17.8622L61.2538 17.8639ZM51.6673 4.18224C51.3309 3.82185 51.2244 3.65866 51.072 3.55775C50.797 3.37323 50.497 3.22273 50.2047 3.06301C47.7047 1.69755 44.9665 1.03385 42.1688 0.556974C41.6069 0.460677 41.0158 0.503925 40.4426 0.52526C40.2931 0.53045 40.1152 0.671146 40.0205 0.798005C39.9771 0.855667 40.0747 1.05749 40.1574 1.15379C40.7797 1.87283 41.5914 2.41522 42.5063 2.72337C44.0857 3.27456 45.7461 3.5769 47.4243 3.61888C48.135 3.63791 48.844 3.76822 49.5517 3.86164C50.1553 3.94467 50.7583 4.04443 51.6673 4.18224ZM30.4268 43.5337C28.7488 42.204 27.2779 41.0156 25.7808 39.8589C24.5415 38.9017 23.2754 37.9768 22.0087 37.0536C21.8665 36.9498 21.642 36.9527 21.3307 36.8748C22.857 39.3589 27.9535 43.133 30.4268 43.5337ZM19.1211 12.5047C20.1331 11.7551 21.0694 10.9663 22.0974 10.3135C23.5385 9.40305 24.0897 8.27112 23.7492 6.32788C22.7266 7.13862 21.9974 8.11543 21.2087 9.00287C20.3753 9.93874 19.7575 11.0534 19.0628 12.1011C19.0092 12.1859 19.0961 12.3531 19.1211 12.5047ZM53.25 40.8547C52.306 40.7919 51.3553 40.9533 50.7631 41.4475C49.6392 42.3845 48.3023 42.8556 46.9421 43.3244C46.2278 43.5701 45.5546 43.931 44.882 44.2753C44.7891 44.3226 44.7718 44.5757 44.7909 44.7251C44.7974 44.7752 45.0492 44.8577 45.1528 44.8237C46.3743 44.42 47.6362 44.0948 48.7928 43.5551C50.2113 42.8954 51.5428 42.0599 52.9 41.2849C53.0423 41.2076 53.1173 41.0248 53.25 40.8547ZM17.1842 27.861C16.9128 28.6365 16.9663 29.0661 17.1372 29.5234C17.6104 30.792 17.8979 32.1309 18.7509 33.2392C19.067 33.6503 19.1319 34.5695 19.7152 34.3711C20.2289 34.1981 19.6277 33.4704 19.5926 32.9797C19.4581 31.1051 18.4414 29.5943 17.1842 27.861ZM26.341 4.51611L26.4678 4.70121C27.1731 4.44749 27.8851 4.20762 28.5833 3.93602C30.1008 3.34594 31.6135 2.7449 33.1215 2.1329C33.4257 2.00835 33.7043 1.80884 33.9638 1.60702C34.0364 1.54935 34.0233 1.35561 34.0007 1.23567C33.9888 1.18204 33.8453 1.1238 33.7626 1.12034C33.6211 1.12333 33.4808 1.14586 33.3459 1.18723C31.2959 1.75175 29.3625 2.58729 27.5124 3.60158C27.0797 3.83915 26.7285 4.20819 26.341 4.51611ZM62.3449 24.6491C62.4687 24.5096 62.5658 24.4513 62.5723 24.3856C62.7723 22.3432 62.5491 20.3192 62.2604 18.3004C62.2461 18.199 62.1009 18.0536 62.0021 18.0415C61.8931 18.0277 61.7235 18.1153 61.6574 18.2099C61.5488 18.3597 61.4812 18.5337 61.461 18.7156C61.3522 20.3806 61.4654 22.0521 61.7979 23.689C61.8634 24.0194 62.1455 24.3101 62.3449 24.6491ZM16.6889 19.0132C17.489 18.7173 17.6086 18.1817 17.6943 17.6984C17.9033 16.5192 18.4259 15.3844 18.2533 14.1378C17.4169 15.6255 16.6752 17.1328 16.6895 19.0132H16.6889ZM36.0514 44.8992C34.2579 44.13 33.7715 44.0493 32.1751 44.2649C32.8519 44.5134 33.4608 44.9084 34.0733 44.9148C34.712 44.924 35.4037 45.6823 36.052 44.8992H36.0514Z" fill="#3C322D"/>
<path d="M39.7497 29.6029C38.5234 29.5816 37.6812 29.084 37.0573 28.1227C36.4764 27.2261 35.5097 26.7607 34.6245 26.2083C33.5084 25.5123 32.6007 24.727 32.3429 23.316C32.1643 22.3593 32.3721 21.5284 32.7727 20.773C33.109 20.1416 33.709 19.5552 34.3394 19.1798C35.0228 18.7727 35.5894 18.3887 35.9049 17.6367C36.2621 16.7718 37.1621 16.7193 37.9591 16.5636C38.7098 16.4172 39.4729 16.3232 40.2128 16.1398C41.2247 15.8895 42.1432 15.9668 42.8825 16.7309C43.4539 17.3236 44.1212 17.7486 44.8653 18.1084C45.6391 18.4821 45.8945 18.9186 45.6522 19.6993C45.4873 20.2293 45.6469 20.5902 45.8504 21.0135C46.0731 21.4748 46.3022 21.9436 46.4552 22.4308C46.9647 24.0523 46.3784 25.4172 44.8093 26.1391C43.8367 26.5866 43.092 27.1828 42.8498 28.2317C42.7527 28.6544 42.4807 28.8943 42.0962 29.0038C41.32 29.2241 40.5324 29.4057 39.7497 29.6029ZM44.8974 22.8051C44.9224 19.9484 42.689 17.6644 39.7848 17.661C37.1788 17.661 34.5573 19.3707 34.4555 22.6471C34.3739 25.2696 36.627 27.7122 39.5639 27.7214C43.1408 27.7387 44.8278 25.3307 44.8974 22.8051ZM34.4269 25.536C34.4269 25.1698 34.4632 24.9824 34.4216 24.8135C34.0364 23.2618 33.7858 21.725 34.6597 20.2304C34.7227 20.1232 34.5775 19.9017 34.5287 19.7334C34.3573 19.787 34.1501 19.7979 34.0203 19.9012C32.5769 21.0498 31.9328 23.8078 34.4269 25.536ZM39.7878 16.9442C40.3919 17.1587 40.7366 17.3109 41.0973 17.4055C42.4277 17.7469 43.5629 18.3604 44.3528 19.4918C44.5087 19.7143 44.7099 20.0453 45.0075 19.7916C45.1659 19.6561 45.2177 19.2421 45.1266 19.0351C45.0034 18.76 44.7236 18.4169 44.4546 18.3627C43.7236 18.2145 43.3236 17.7013 42.8474 17.2539C42.0462 16.5083 41.1515 16.2742 39.7878 16.9442ZM39.7056 28.1885L39.6878 28.0806C39.3044 28.0806 38.9175 28.0489 38.5401 28.0939C38.3461 28.117 38.1699 28.2767 37.9859 28.3747C38.1532 28.5183 38.299 28.7443 38.4919 28.7911C39.5229 29.043 40.5622 29.0972 41.5789 28.7115C41.7527 28.6452 41.9462 28.5587 42.0551 28.4232C42.1515 28.3078 42.1831 28.1031 42.1634 27.948C42.1557 27.8904 41.9152 27.8033 41.7962 27.8217C41.0979 27.9278 40.4027 28.0616 39.7086 28.1867L39.7056 28.1885ZM44.9784 25.2586C45.6927 25.13 46.0117 24.7397 46.0534 24.1394C46.0843 23.6334 46.0767 23.126 46.0308 22.6211C46.0195 22.4879 45.8278 22.3691 45.7189 22.2434C45.5599 22.3893 45.2373 22.5854 45.2665 22.673C45.5564 23.5489 44.9504 24.3331 44.9784 25.2569V25.2586Z" fill="#3C322D"/>
<path d="M51.5125 29.2137C51.4714 29.2339 51.3059 29.3683 51.1268 29.3867C50.9637 29.4052 50.7256 29.3521 50.6244 29.2414C50.1166 28.6861 49.6237 28.1152 49.1696 27.5184C49.0505 27.3622 49.0017 26.9418 49.0696 26.9055C49.2928 26.7861 49.7291 26.6616 49.8261 26.7648C50.4006 27.3789 50.9059 28.0541 51.425 28.7161C51.4756 28.7824 51.4601 28.896 51.5125 29.2137Z" fill="#3C322D"/>
<path d="M27.1946 34.0234C27.4601 34.0442 27.9845 34.0597 28.4958 34.1445C28.6232 34.1658 28.7934 34.4074 28.7934 34.5516C28.7934 34.6957 28.6464 34.9448 28.519 34.9754C27.5249 35.2147 26.5356 35.2735 25.6558 34.6294C25.6061 34.5846 25.5677 34.5293 25.5435 34.4678C25.5192 34.4064 25.5098 34.3403 25.516 34.2748C25.535 34.1785 25.6892 34.0442 25.7927 34.0372C26.1743 34.0061 26.5571 34.0234 27.1946 34.0234Z" fill="#3C322D"/>
<path d="M58.3454 13.7456L58.7216 13.9452C58.6151 14.1303 58.5496 14.4278 58.3942 14.4814C57.6784 14.7364 56.944 14.9396 56.1971 15.0892C55.9823 15.1301 55.6703 14.9254 55.4721 14.7565C55.2435 14.561 55.3799 14.1366 55.668 14.0939C56.515 13.9676 57.368 13.8708 58.3454 13.7456Z" fill="#3C322D"/>
<path d="M33.0418 38.1521C33.4394 38.332 33.7721 38.3827 33.9346 38.5747C34.3796 39.1099 34.7867 39.6736 35.1531 40.2619C35.3317 40.5422 35.1686 40.8455 34.868 40.9262C34.7031 40.9706 34.4043 40.8403 34.2829 40.6956C33.7976 40.1293 33.348 39.5353 32.9364 38.9167C32.8411 38.7696 32.9888 38.4744 33.0418 38.1521Z" fill="#3C322D"/>
<path d="M48.6434 15.8382C48.6684 15.6745 48.6434 15.4871 48.7225 15.415C48.8297 15.3204 49.0594 15.242 49.1696 15.2933C49.3202 15.3631 49.4178 15.5545 49.5214 15.705C49.8095 16.1237 50.0946 16.5446 50.369 16.9736C50.4916 17.1656 50.6565 17.3703 50.6666 17.5773C50.6785 17.7688 50.5583 18.0173 50.4095 18.1488C50.3267 18.2226 49.9857 18.1747 49.9017 18.0727C49.3517 17.3951 48.6922 16.7608 48.6434 15.8382Z" fill="#3C322D"/>
<path d="M50.3547 8.63959C50.2357 9.33154 50.188 9.84071 50.0494 10.3285C49.9624 10.5921 49.7967 10.8247 49.5731 10.9969C49.4154 11.1202 49.1404 11.1024 48.9184 11.1474C48.9005 10.9461 48.8356 10.7362 48.8731 10.5454C48.9892 9.95604 49.1446 9.37364 49.2839 8.78894C49.2946 8.74338 49.2916 8.69495 49.3053 8.65054C49.4148 8.29765 49.6517 8.02894 50.0309 8.17483C50.222 8.24863 50.3113 8.57212 50.3547 8.63959Z" fill="#3C322D"/>
<path d="M40.0914 13.1396C40.4259 13.18 40.8586 13.2019 41.2717 13.2988C41.4128 13.3316 41.6212 13.5778 41.5967 13.6839C41.5539 13.8737 41.3908 14.1233 41.2188 14.1798C40.9461 14.2623 40.6541 14.2637 40.3806 14.1839C39.9044 14.0368 39.461 13.9878 38.986 14.1804C38.674 14.3073 38.3812 14.1741 38.2978 13.8731C38.1865 13.4694 38.4996 13.274 38.8514 13.2169C39.2264 13.1563 39.614 13.1661 40.0914 13.1396Z" fill="#3C322D"/>
<path d="M47.516 33.0195C47.3808 33.5921 47.2779 34.0943 47.132 34.585C47.1034 34.6813 46.8939 34.8111 46.8058 34.7892C46.6475 34.7517 46.4249 34.6306 46.3927 34.5049C46.3215 34.2334 46.3134 33.95 46.3689 33.6751C46.4808 33.1723 46.5909 32.6948 46.3808 32.1811C46.2808 31.9348 46.3094 31.5422 46.6951 31.5433C46.9028 31.5433 47.2017 31.7924 47.2951 31.9983C47.4469 32.3275 47.457 32.715 47.516 33.0195Z" fill="#3C322D"/>
<path d="M41.6587 32.8724C41.5813 33.0068 41.5438 33.1654 41.442 33.2334C40.8152 33.652 40.1872 34.0724 39.5276 34.4386C39.3592 34.532 39.0633 34.4743 38.8485 34.4126C38.5336 34.3221 38.4681 33.9207 38.7294 33.7581C39.4509 33.3101 40.1765 32.8655 40.9199 32.4526C41.039 32.3863 41.2771 32.4578 41.4307 32.5316C41.5348 32.5824 41.5795 32.7462 41.6587 32.8724Z" fill="#3C322D"/>
<path d="M33.6727 5.97325C33.7745 6.03092 33.9662 6.08166 33.9918 6.17277C34.2406 7.06135 34.4805 7.95282 34.6781 8.85236C34.7329 9.10204 34.3918 9.24101 34.1632 9.09167C33.4436 8.62229 32.9953 6.88375 33.415 6.15662C33.4584 6.08454 33.5644 6.04821 33.6727 5.97325Z" fill="#3C322D"/>
<path d="M42.5658 8.49716C42.3491 8.35704 42.1152 8.28554 42.0837 8.16445C42.0497 8.03298 42.1616 7.80867 42.2831 7.70314C42.8112 7.24582 43.3635 6.81546 43.9379 6.4138C44.1313 6.28175 44.5331 6.18834 44.6819 6.29155C45.0331 6.53086 44.8486 6.86818 44.604 7.11498C44.2754 7.44769 43.9492 7.79829 43.5706 8.067C43.2801 8.26939 42.9075 8.35647 42.5658 8.49716Z" fill="#3C322D"/>
<path d="M28.8815 13.1921L28.3553 13.6741C28.2053 13.5167 27.9827 13.3858 27.9196 13.1978C27.6672 12.4621 27.4559 11.713 27.2553 10.9622C27.2279 10.859 27.3148 10.648 27.4041 10.6122C27.5499 10.5546 27.7898 10.5315 27.9005 10.6122C28.119 10.7685 28.3684 10.9778 28.4398 11.2125C28.6274 11.8237 28.7262 12.4626 28.8815 13.1921Z" fill="#3C322D"/>
<path d="M23.1207 25.5256C22.6379 26.3831 22.2712 27.2613 21.3724 27.7289C21.2212 27.8073 20.8867 27.707 20.7248 27.5819C20.4497 27.3702 20.7248 27.1944 20.8587 27.0139C21.2807 26.4511 21.6706 25.8641 22.1188 25.3226C22.2343 25.1837 22.5278 25.115 22.7272 25.1341C22.8629 25.1462 22.9736 25.3699 23.1207 25.5256Z" fill="#3C322D"/>
<path d="M28.5738 25.5983C28.8256 25.7395 29.0083 25.7816 29.0422 25.8745C29.0982 26.0267 29.1274 26.266 29.0422 26.3715C28.9041 26.5399 28.6678 26.6368 28.4642 26.7498C27.9363 27.0433 27.4154 27.3529 26.8666 27.6032C26.6993 27.6793 26.3963 27.6562 26.2475 27.5536C25.941 27.342 26.0487 27.0029 26.2951 26.8536C27.0487 26.3963 27.841 25.9961 28.5738 25.5983Z" fill="#3C322D"/>
<path d="M55.865 21.7152C55.6709 22.1391 55.3983 22.7785 55.0751 23.3932C55.0251 23.4884 54.712 23.5403 54.5792 23.4832C54.456 23.4296 54.3215 23.1891 54.3465 23.0588C54.4763 22.3755 54.6197 21.6899 54.8382 21.0302C54.9048 20.829 55.206 20.6462 55.4376 20.5787C55.5233 20.5539 55.7477 20.867 55.8543 21.0585C55.915 21.1663 55.865 21.3324 55.865 21.7152Z" fill="#3C322D"/>
<path d="M22.9695 16.6201C23.8236 17.3628 23.7219 18.3714 23.8165 19.3026C23.8344 19.4756 23.6123 19.723 23.4349 19.8481C23.3421 19.9138 22.9647 19.8083 22.9558 19.7478C22.8212 18.8073 22.7177 17.8616 22.6349 16.9148C22.6284 16.8341 22.829 16.7355 22.9695 16.6201Z" fill="#3C322D"/>
<path d="M42.9301 39.6178C43.0733 39.6546 43.2142 39.6992 43.3522 39.7516C43.8653 39.9823 44.3813 40.2066 44.882 40.4603C45.1201 40.5802 45.3582 40.7302 45.5296 40.9216C45.7266 41.1436 45.5016 41.5697 45.226 41.5115C44.295 41.3166 43.3855 41.0444 42.689 40.3698C42.5861 40.27 42.5884 40.0203 42.6218 39.8548C42.6414 39.7614 42.8212 39.6968 42.9301 39.6178Z" fill="#3C322D"/>
<path d="M31.6006 16.8917C31.65 17.0411 31.8191 17.2729 31.7596 17.4182C31.4471 18.188 31.0852 18.9399 30.7167 19.6867C30.6714 19.7783 30.4786 19.8596 30.3643 19.8446C30.2643 19.8325 30.1262 19.6965 30.1 19.5932C29.9048 18.7612 30.5203 17.2717 31.2066 16.8969C31.2774 16.8583 31.3905 16.8917 31.6006 16.8917Z" fill="#3C322D"/>
<path d="M58.221 29.5251C58.1139 29.4594 57.8906 29.3792 57.7746 29.2241C57.7281 29.1624 57.8781 28.881 58.0073 28.7911C58.5799 28.3874 59.1645 28.0017 59.774 27.6568C59.9383 27.564 60.28 27.5571 60.4008 27.6614C60.5121 27.7583 60.5288 28.1227 60.4282 28.2565C59.9175 28.9462 59.2734 29.4721 58.221 29.5251Z" fill="#3C322D"/>
<path d="M54.684 35.4632C54.2423 35.4188 54.0501 35.4142 53.8661 35.3744C53.7881 35.3577 53.6721 35.2683 53.6709 35.2101C53.6626 35.0789 53.6979 34.9486 53.7715 34.8382C53.8662 34.7339 53.9904 34.6588 54.1286 34.6219C54.8096 34.4236 55.4912 34.2246 56.1823 34.0638C56.3323 34.0292 56.6483 34.1249 56.668 34.2079C56.7132 34.4051 56.6591 34.6433 56.5793 34.8422C56.537 34.9472 56.3686 35.0348 56.2394 35.0729C55.6477 35.2303 55.0537 35.371 54.684 35.4632Z" fill="#3C322D"/>
<path d="M34.1793 30.6974C34.1305 30.8986 34.0513 31.3444 33.8983 31.7647C33.8602 31.8691 33.5626 31.9694 33.4257 31.9314C33.2888 31.8933 33.1281 31.6748 33.1322 31.5381C33.1465 30.7602 33.1864 29.9812 33.2679 29.2068C33.2852 29.0379 33.5061 28.8891 33.6334 28.7311C33.7858 28.8874 34.0328 29.0252 34.0715 29.2045C34.1579 29.6058 34.1394 30.0279 34.1793 30.6974Z" fill="#3C322D"/>
<path d="M66.0912 6.3572C66.0912 4.70933 66.5025 3.45985 67.325 2.60875C68.1569 1.7486 69.2224 1.31852 70.5216 1.31852C71.8208 1.31852 72.8536 1.68974 73.62 2.43219C74.3958 3.17464 74.7837 4.36074 74.7837 5.99051C74.7837 7.62027 74.3724 8.85165 73.5499 9.68464C72.7274 10.5176 71.6292 10.9341 70.2552 10.9341C69.0682 10.9341 68.0961 10.6036 67.339 9.94268C66.9465 9.59862 66.638 9.12327 66.4137 8.51664C66.1987 7.90095 66.0912 7.18114 66.0912 6.3572ZM70.4795 1.45434C69.5355 1.45434 68.7597 1.86178 68.1522 2.67666C67.554 3.49154 67.2549 4.6867 67.2549 6.26213C67.2549 7.83757 67.54 8.98746 68.1101 9.7118C68.6803 10.4361 69.4374 10.7983 70.3814 10.7983C71.3347 10.7983 72.1105 10.3909 72.7087 9.57598C73.3162 8.75205 73.62 7.56142 73.62 6.00409C73.62 4.43771 73.3302 3.28782 72.7507 2.55442C72.1806 1.82103 71.4235 1.45434 70.4795 1.45434Z" fill="#3C322D"/>
<path d="M77.2086 10.8798H76.0449V1.37285H77.2086V5.74604H81.7651V1.37285H82.9287V10.8798H81.7651V5.88186H77.2086V10.8798Z" fill="#3C322D"/>
<path d="M88.9104 10.8798H88.7281L89.9478 1.37285H90.4105L93.3547 10.16L96.2849 1.37285H96.7476L97.9673 10.8798H96.8036L95.8363 3.27424L93.2986 10.8798H92.4154L89.8497 3.36931L88.9104 10.8798Z" fill="#3C322D"/>
<path d="M105.734 1.37285C105.911 1.54488 106 1.76671 106 2.03833C106 2.26469 105.949 2.49557 105.846 2.73098L103.336 7.66101V10.8798H102.173V7.9598L99.3685 1.37285H100.56L103.238 7.49804L105.678 2.73098C105.78 2.50463 105.832 2.26922 105.832 2.02475C105.832 1.78029 105.762 1.59015 105.621 1.45434L105.734 1.37285Z" fill="#3C322D"/>
<path d="M1.97648 13.3778C2.70119 13.3458 3.40943 13.3299 4.1012 13.3299C4.80944 13.3299 5.55062 13.4017 6.32474 13.5453C7.11533 13.6889 7.88946 13.9601 8.64711 14.359C9.42123 14.7419 10.0718 15.2445 10.5989 15.8668C11.1424 16.4731 11.5789 17.2788 11.9083 18.284C12.2377 19.2892 12.4024 20.5098 12.4024 21.9458C12.4024 23.3818 12.1554 24.6741 11.6612 25.8229C11.1836 26.9557 10.5248 27.8253 9.68476 28.4316C8.05416 29.6123 6.08592 30.2027 3.78002 30.2027C2.97296 30.2027 2.12472 30.1707 1.2353 30.1069H0V13.3778H1.97648ZM2.0506 29.9155C2.39648 29.9474 2.83296 29.9633 3.36002 29.9633C3.88708 29.9633 4.28238 29.9554 4.54591 29.9394C4.80944 29.9234 5.17179 29.8596 5.63297 29.7479C6.09415 29.6203 6.52239 29.4528 6.91769 29.2453C7.31298 29.0379 7.72475 28.7348 8.15299 28.3359C8.5977 27.921 8.97652 27.4344 9.28946 26.876C9.9977 25.5676 10.3518 23.8604 10.3518 21.7543C10.3518 20.2545 10.1624 18.9621 9.78358 17.8772C9.40476 16.7762 8.96829 15.9625 8.47417 15.436C7.99652 14.9095 7.41181 14.4946 6.72004 14.1915C6.02827 13.8724 5.4765 13.6889 5.06473 13.641C4.65297 13.5932 4.17532 13.5692 3.63179 13.5692C3.08825 13.5692 2.56119 13.5932 2.0506 13.641V29.9155Z" fill="#3C322D"/>
<path d="M66.4923 30.1069H66.1711V13.3538H67.0111L77.2888 28.8385V13.3538H77.61V30.1069H75.8065L66.4923 16.2258V30.1069Z" fill="#3C322D"/>
<path d="M92.8233 13.3538H93.1445V22.927C93.1445 25.432 92.6339 27.2749 91.6127 28.4555C90.5915 29.6203 89.2574 30.2027 87.6103 30.2027C86.5727 30.2027 85.6915 30.1149 84.9668 29.9394C84.2421 29.7479 83.5586 29.4049 82.9162 28.9103C81.5985 27.921 80.9397 25.9266 80.9397 22.927V13.3538H82.9903V22.9031C82.9903 25.807 83.4433 27.7455 84.3491 28.7188C84.8103 29.1975 85.288 29.5246 85.7821 29.7001C86.2927 29.8756 86.9021 29.9633 87.6103 29.9633C89.1915 29.9633 90.4515 29.4049 91.3904 28.288C92.3457 27.1552 92.8233 25.3602 92.8233 22.9031V13.3538Z" fill="#3C322D"/>
<path d="M101.573 30.1069H99.5221V13.5932H95.248V13.3538H105.872V13.5932H101.573V30.1069Z" fill="#3C322D"/>
</symbol>
<symbol id="icon-burger" viewBox="0 0 30 16">
<rect width="30" height="2" rx="1" fill="#3C322D"/>
<rect y="7" width="30" height="2" rx="1" fill="#3C322D"/>
<rect y="14" width="30" height="2" rx="1" fill="#3C322D"/>
</symbol>
<symbol id="icon-close" viewBox="0 0 32 32">
<path d="M23.884 6.70597L16 14.59L8.11602 6.70597C7.9264 6.53245 7.67714 6.43878 7.42017 6.44448C7.1632 6.45017 6.91833 6.55479 6.73658 6.73654C6.55484 6.91829 6.45022 7.16315 6.44452 7.42012C6.43883 7.67709 6.5325 7.92635 6.70602 8.11597L14.586 16L6.70402 23.882C6.60773 23.9737 6.53075 24.0838 6.47761 24.2058C6.42448 24.3277 6.39626 24.4591 6.39461 24.5921C6.39296 24.7251 6.41792 24.8571 6.46802 24.9803C6.51812 25.1035 6.59235 25.2155 6.68634 25.3096C6.78033 25.4038 6.89219 25.4781 7.01535 25.5284C7.1385 25.5787 7.27046 25.6038 7.40348 25.6024C7.53649 25.6009 7.66787 25.5729 7.78989 25.5199C7.91191 25.467 8.02211 25.3901 8.11402 25.294L16 17.412L23.884 25.296C24.0736 25.4695 24.3229 25.5632 24.5799 25.5575C24.8368 25.5518 25.0817 25.4472 25.2635 25.2654C25.4452 25.0837 25.5498 24.8388 25.5555 24.5818C25.5612 24.3249 25.4675 24.0756 25.294 23.886L17.41 16.002L25.294 8.11597C25.3903 8.0242 25.4673 7.91411 25.5204 7.79216C25.5736 7.67022 25.6018 7.53888 25.6034 7.40587C25.6051 7.27286 25.5801 7.14086 25.53 7.01763C25.4799 6.89441 25.4057 6.78244 25.3117 6.68832C25.2177 6.59419 25.1058 6.5198 24.9827 6.46953C24.8595 6.41926 24.7276 6.39411 24.5946 6.39557C24.4616 6.39703 24.3302 6.42506 24.2082 6.47802C24.0861 6.53099 23.9759 6.60781 23.884 6.70397V6.70597Z" fill="black"/>
</symbol>
<symbol id="icon-phone" viewBox="0 0 32 32">
<path d="M22 20c-2 2-2 4-4 4s-4-2-6-4-4-4-4-6 2-2 4-4-4-8-6-8-6 6-6 6c0 4 4.109 12.109 8 16s12 8 16 8c0 0 6-4 6-6s-6-8-8-6z"></path>
</symbol>
<symbol id="icon-location" viewBox="0 0 32 32">
<path d="M16 0c-5.523 0-10 4.477-10 10 0 10 10 22 10 22s10-12 10-22c0-5.523-4.477-10-10-10zM16 16c-3.314 0-6-2.686-6-6s2.686-6 6-6 6 2.686 6 6-2.686 6-6 6z"></path>
</symbol>
<symbol id="icon-star" viewBox="0 0 24 24">
<path d="M15.24 1.561c0.505-1.551 2.7-1.551 3.203 0l2.558 7.872c0.227 0.68 0.857 1.162 1.6 1.162h8.278c1.632 0 2.309 2.088 0.99 3.048l-6.696 4.864c-0.423 0.31-0.694 0.804-0.694 1.362 0 0.186 0.030 0.365 0.086 0.533l-0.003-0.012 2.557 7.872c0.505 1.553-1.272 2.843-2.592 1.883l-6.695-4.864c-0.274-0.201-0.618-0.322-0.99-0.322s-0.716 0.121-0.995 0.325l0.005-0.003-6.696 4.864c-1.319 0.96-3.096-0.332-2.59-1.883l2.557-7.872c0.052-0.155 0.082-0.335 0.082-0.521 0-0.558-0.271-1.052-0.689-1.359l-0.005-0.003-6.696-4.864c-1.319-0.96-0.64-3.048 0.99-3.048h8.276c0 0 0 0 0 0 0.744 0 1.374-0.482 1.598-1.15l0.003-0.012 2.56-7.872z"></path>
</symbol>
<symbol id="icon-fourstars" viewBox="0 0 181 32">
<path fill="#edd501" style="fill: var(--color1, #edd501)" d="M14.732 3.903c0.399-1.228 2.137-1.228 2.536 0l2.025 6.232c0.178 0.549 0.69 0.921 1.268 0.921h6.552c1.292 0 1.829 1.653 0.784 2.412l-5.301 3.851c-0.467 0.339-0.663 0.941-0.484 1.491l2.025 6.232c0.399 1.228-1.007 2.25-2.052 1.491l-5.301-3.851c-0.467-0.339-1.1-0.339-1.567 0l-5.301 3.851c-1.045 0.759-2.451-0.262-2.052-1.491l2.025-6.232c0.178-0.549-0.017-1.151-0.484-1.491l-5.301-3.851c-1.045-0.759-0.508-2.412 0.784-2.412h6.552c0.578 0 1.090-0.372 1.268-0.921l2.025-6.232z"></path>
<path fill="none" stroke="#edd501" style="stroke: var(--color1, #edd501)" stroke-linejoin="miter" stroke-linecap="butt" stroke-miterlimit="4" stroke-width="1.3333" d="M165.968 4.109l2.024 6.232c0.268 0.824 1.036 1.382 1.903 1.382h6.552c0.645 0 0.915 0.826 0.392 1.206l-5.301 3.851c-0.701 0.509-0.995 1.412-0.727 2.236l2.025 6.232c0.2 0.614-0.504 1.125-1.027 0.745l-5.3-3.851c-0.701-0.509-1.651-0.509-2.352 0l-5.3 3.851c-0.523 0.38-1.227-0.131-1.027-0.745l2.025-6.232c0.268-0.824-0.025-1.727-0.727-2.236l-5.301-3.851c-0.523-0.38-0.253-1.206 0.392-1.206h6.552c0.867 0 1.635-0.558 1.903-1.382l2.024-6.232c0.2-0.614 1.069-0.614 1.269 0z"></path>
<path fill="#edd501" style="fill: var(--color1, #edd501)" d="M126.732 3.903c0.399-1.228 2.137-1.228 2.536 0l2.025 6.232c0.178 0.549 0.69 0.921 1.268 0.921h6.552c1.292 0 1.828 1.653 0.784 2.412l-5.301 3.851c-0.467 0.339-0.663 0.941-0.484 1.491l2.024 6.232c0.4 1.228-1.007 2.25-2.051 1.491l-5.302-3.851c-0.467-0.339-1.1-0.339-1.567 0l-5.301 3.851c-1.045 0.759-2.451-0.262-2.052-1.491l2.025-6.232c0.179-0.549-0.017-1.151-0.484-1.491l-5.301-3.851c-1.045-0.759-0.508-2.412 0.784-2.412h6.552c0.578 0 1.090-0.372 1.268-0.921l2.025-6.232z"></path>
<path fill="#edd501" style="fill: var(--color1, #edd501)" d="M89.399 3.903c0.399-1.228 2.137-1.228 2.536 0l2.025 6.232c0.178 0.549 0.69 0.921 1.268 0.921h6.552c1.292 0 1.829 1.653 0.784 2.412l-5.301 3.851c-0.467 0.339-0.663 0.941-0.484 1.491l2.025 6.232c0.399 1.228-1.007 2.25-2.052 1.491l-5.301-3.851c-0.467-0.339-1.1-0.339-1.567 0l-5.301 3.851c-1.045 0.759-2.451-0.262-2.052-1.491l2.025-6.232c0.179-0.549-0.017-1.151-0.484-1.491l-5.301-3.851c-1.045-0.759-0.508-2.412 0.784-2.412h6.552c0.578 0 1.090-0.372 1.268-0.921l2.025-6.232z"></path>
<path fill="#edd501" style="fill: var(--color1, #edd501)" d="M52.065 3.903c0.399-1.228 2.137-1.228 2.536 0l2.025 6.232c0.178 0.549 0.69 0.921 1.268 0.921h6.552c1.292 0 1.829 1.653 0.784 2.412l-5.301 3.851c-0.467 0.339-0.663 0.941-0.484 1.491l2.025 6.232c0.399 1.228-1.007 2.25-2.052 1.491l-5.301-3.851c-0.467-0.339-1.1-0.339-1.567 0l-5.301 3.851c-1.045 0.759-2.451-0.262-2.052-1.491l2.025-6.232c0.179-0.549-0.017-1.151-0.484-1.491l-5.301-3.851c-1.045-0.759-0.508-2.412 0.784-2.412h6.552c0.578 0 1.090-0.372 1.268-0.921l2.025-6.232z"></path>
</symbol>
<symbol id="icon-fivestars" viewBox="0 0 181 32">
<path fill="#edd501" style="fill: var(--color1, #edd501)" d="M14.732 3.903c0.399-1.228 2.137-1.228 2.536 0l2.025 6.232c0.178 0.549 0.69 0.921 1.268 0.921h6.552c1.292 0 1.829 1.653 0.784 2.412l-5.301 3.851c-0.467 0.339-0.663 0.941-0.484 1.491l2.025 6.232c0.399 1.228-1.007 2.25-2.052 1.491l-5.301-3.851c-0.467-0.339-1.1-0.339-1.567 0l-5.301 3.851c-1.045 0.759-2.451-0.262-2.052-1.491l2.025-6.232c0.178-0.549-0.017-1.151-0.484-1.491l-5.301-3.851c-1.045-0.759-0.508-2.412 0.784-2.412h6.552c0.578 0 1.090-0.372 1.268-0.921l2.025-6.232z"></path>
<path fill="#edd501" style="fill: var(--color1, #edd501)" d="M164.065 3.903c0.399-1.228 2.137-1.228 2.536 0l2.025 6.232c0.179 0.549 0.689 0.921 1.268 0.921h6.552c1.292 0 1.828 1.653 0.784 2.412l-5.301 3.851c-0.467 0.339-0.663 0.941-0.484 1.491l2.024 6.232c0.4 1.228-1.007 2.25-2.051 1.491l-5.301-3.851c-0.468-0.339-1.1-0.339-1.568 0l-5.301 3.851c-1.044 0.759-2.451-0.262-2.051-1.491l2.024-6.232c0.179-0.549-0.017-1.151-0.484-1.491l-5.301-3.851c-1.044-0.759-0.508-2.412 0.784-2.412h6.552c0.579 0 1.089-0.372 1.268-0.921l2.025-6.232z"></path>
<path fill="#edd501" style="fill: var(--color1, #edd501)" d="M126.732 3.903c0.399-1.228 2.137-1.228 2.536 0l2.025 6.232c0.178 0.549 0.69 0.921 1.268 0.921h6.552c1.292 0 1.828 1.653 0.784 2.412l-5.301 3.851c-0.467 0.339-0.663 0.941-0.484 1.491l2.024 6.232c0.4 1.228-1.007 2.25-2.051 1.491l-5.302-3.851c-0.467-0.339-1.1-0.339-1.567 0l-5.301 3.851c-1.045 0.759-2.451-0.262-2.052-1.491l2.025-6.232c0.179-0.549-0.017-1.151-0.484-1.491l-5.301-3.851c-1.045-0.759-0.508-2.412 0.784-2.412h6.552c0.578 0 1.090-0.372 1.268-0.921l2.025-6.232z"></path>
<path fill="#edd501" style="fill: var(--color1, #edd501)" d="M89.399 3.903c0.399-1.228 2.137-1.228 2.536 0l2.025 6.232c0.178 0.549 0.69 0.921 1.268 0.921h6.552c1.292 0 1.829 1.653 0.784 2.412l-5.301 3.851c-0.467 0.339-0.663 0.941-0.484 1.491l2.025 6.232c0.399 1.228-1.007 2.25-2.052 1.491l-5.301-3.851c-0.467-0.339-1.1-0.339-1.567 0l-5.301 3.851c-1.045 0.759-2.451-0.262-2.052-1.491l2.025-6.232c0.179-0.549-0.017-1.151-0.484-1.491l-5.301-3.851c-1.045-0.759-0.508-2.412 0.784-2.412h6.552c0.578 0 1.090-0.372 1.268-0.921l2.025-6.232z"></path>
<path fill="#edd501" style="fill: var(--color1, #edd501)" d="M52.065 3.903c0.399-1.228 2.137-1.228 2.536 0l2.025 6.232c0.178 0.549 0.69 0.921 1.268 0.921h6.552c1.292 0 1.829 1.653 0.784 2.412l-5.301 3.851c-0.467 0.339-0.663 0.941-0.484 1.491l2.025 6.232c0.399 1.228-1.007 2.25-2.052 1.491l-5.301-3.851c-0.467-0.339-1.1-0.339-1.567 0l-5.301 3.851c-1.045 0.759-2.451-0.262-2.052-1.491l2.025-6.232c0.179-0.549-0.017-1.151-0.484-1.491l-5.301-3.851c-1.045-0.759-0.508-2.412 0.784-2.412h6.552c0.578 0 1.090-0.372 1.268-0.921l2.025-6.232z"></path>
</symbol>
</defs>  
</svg>
