<svg width="267" height="312" fill="none" xmlns="http://www.w3.org/2000/svg"><path d="M40 20c0 11.046-8.954 20-20 20S0 31.046 0 20 8.954 0 20 0s20 8.954 20 20ZM7.732 20c0 6.775 5.493 12.268 12.268 12.268S32.268 26.775 32.268 20 26.775 7.732 20 7.732 7.732 13.225 7.732 20ZM267 277c0 19.33-15.67 35-35 35s-35-15.67-35-35 15.67-35 35-35 35 15.67 35 35Zm-56.469 0c0 11.857 9.612 21.469 21.469 21.469 11.857 0 21.469-9.612 21.469-21.469 0-11.857-9.612-21.469-21.469-21.469-11.857 0-21.469 9.612-21.469 21.469ZM227 98c0 8.284-6.716 15-15 15-8.284 0-15-6.716-15-15 0-8.284 6.716-15 15-15 8.284 0 15 6.716 15 15Zm-24.201 0a9.2 9.2 0 0 0 9.201 9.201A9.2 9.2 0 0 0 221.201 98 9.2 9.2 0 0 0 212 88.8a9.2 9.2 0 0 0-9.201 9.2Z" fill="#F3848C" fill-opacity=".12"/></svg>